<svg width="103" height="30" viewBox="0 0 103 30" fill="none" xmlns="http://www.w3.org/2000/svg">
<g clip-path="url(#clip0_1_28283)">
<path d="M18.6152 6.47938L23.0284 5.96121C23.8582 5.86379 24.6879 5.76603 25.5177 5.66792C26.1641 5.5902 26.1641 5.58813 26.1641 6.22859C26.1641 9.42052 26.1641 12.6131 26.1641 15.8064C26.1588 16.4274 26.193 17.0481 26.2665 17.6646C26.4315 18.9652 27.6218 19.644 28.8194 19.0844C29.2383 18.8885 29.5887 18.5787 29.9462 18.2864C30.1357 18.133 30.1255 17.9216 30.1244 17.7195C30.1142 14.8033 30.0999 11.8877 30.0814 8.97282C30.0833 8.36387 29.8823 7.77204 29.5108 7.29291C29.1738 6.85453 28.6739 6.80375 28.1924 6.70426C28.0797 6.68043 27.9507 6.70426 27.8533 6.59441C27.8861 6.35916 28.0838 6.38196 28.2375 6.37367C30.5393 6.24827 32.8166 5.91354 35.0918 5.57154C35.3694 5.53009 35.3991 5.62336 35.3991 5.86068C35.3889 6.80997 35.393 7.75926 35.3991 8.70855C35.4046 11.2649 35.41 13.8187 35.4155 16.3702C35.4155 17.7382 35.9728 18.7082 37.2318 18.9155C37.3619 18.9372 37.5319 18.9828 37.5391 19.1435C37.5442 19.3259 37.3588 19.3186 37.2318 19.3507C34.9504 19.8523 32.7633 20.6731 30.5373 21.3602C30.1849 21.4638 30.1081 21.3809 30.1203 21.0234C30.147 20.2834 30.1285 19.5414 30.1285 18.7942C29.8663 18.7497 29.7792 18.958 29.6542 19.0709C28.4731 20.1435 27.1957 21.0203 25.5976 21.3509C24.2372 21.6307 22.9874 21.4452 21.8933 20.5342C21.209 19.9642 20.9929 19.1725 20.9529 18.3227C20.8505 16.08 20.9458 13.8364 20.9007 11.5937C20.8781 10.4921 20.8904 9.38528 20.6958 8.29505C20.5258 7.35405 20.1836 6.99859 19.2616 6.80168C19.0322 6.74883 18.8017 6.72603 18.6152 6.47938Z" fill="#000020"/>
<path d="M60.8874 18.6428C60.4489 19.02 60.0955 19.3299 59.7349 19.6325C58.5005 20.6689 57.1227 21.3746 55.4898 21.4586C54.4315 21.5124 53.4625 21.2575 52.6481 20.5341C52.3669 20.2942 52.1399 19.996 51.9824 19.6597C51.825 19.3234 51.7407 18.9569 51.7353 18.5848C51.7046 17.5167 51.6824 16.4478 51.6687 15.3783C51.6411 13.3606 51.6257 11.3428 51.595 9.32507C51.5813 9.03276 51.5446 8.74201 51.4854 8.45558C51.2805 7.29385 50.9793 7.0047 49.8299 6.74147C49.6844 6.70934 49.4109 6.78086 49.4201 6.55079C49.4263 6.34352 49.6732 6.38187 49.8371 6.37047C52.0662 6.22331 54.281 5.93831 56.4886 5.60357C56.8799 5.5445 56.9372 5.63363 56.9362 5.99531C56.9239 9.3116 56.9362 12.6217 56.926 15.9349C56.9254 16.5043 56.9552 17.0734 57.0151 17.6396C57.135 18.7796 58.0231 19.4481 59.1387 19.218C59.78 19.0864 60.2727 18.6832 60.7409 18.2531C60.8925 18.1153 60.8915 17.9184 60.8904 17.7236C60.8648 14.7742 60.8525 11.8237 60.8146 8.87426C60.7982 7.60164 60.2358 6.96221 58.9963 6.71038C58.859 6.6824 58.6337 6.74147 58.6542 6.51555C58.6675 6.36113 58.8672 6.38497 59.0004 6.37253C61.293 6.17045 63.5795 5.91344 65.8557 5.57041C66.2911 5.50408 66.1415 5.79633 66.1415 5.97251C66.1487 8.64627 66.1415 11.3211 66.1477 13.9959C66.1477 14.9607 66.1313 15.9255 66.2235 16.8893C66.3311 17.9992 66.7767 18.5755 67.8339 18.8812C67.8846 18.8884 67.9348 18.8984 67.9844 18.9112C68.1063 18.961 68.2825 18.9776 68.2856 19.1434C68.2887 19.3092 68.1094 19.3185 67.9834 19.3506C67.2919 19.5299 66.5933 19.6833 65.91 19.8906C64.3652 20.3611 62.8266 20.8513 61.2889 21.3487C60.9816 21.4523 60.8699 21.4285 60.8792 21.0596C60.9048 20.2916 60.8874 19.5216 60.8874 18.6428Z" fill="#000020"/>
<path d="M0 20.9289C0.183369 20.7092 0.450739 20.7133 0.695572 20.6698C2.07442 20.4242 2.57331 19.8977 2.69112 18.4935C2.74746 17.824 2.77 17.1462 2.77102 16.4788C2.77921 12.6133 2.77921 8.74772 2.77102 4.88217C2.76247 4.31346 2.71902 3.74584 2.64092 3.18257C2.49136 2.0198 1.88798 1.44152 0.758061 1.2954C0.490691 1.2612 0.00409788 1.35343 0.019464 1.07155C0.0348301 0.789664 0.505033 0.946149 0.765232 0.946149C6.09215 0.934749 11.4129 0.946151 16.7368 0.925424C17.1752 0.925424 17.3115 1.05704 17.377 1.47054C17.7243 3.64685 18.1002 5.81799 18.4608 7.99119C18.4844 8.13006 18.594 8.3394 18.4158 8.40573C18.1976 8.48242 18.1535 8.23681 18.091 8.08965C17.5788 6.88542 17.0615 5.68845 16.1959 4.68631C14.3458 2.54523 12.0767 1.284 9.21146 1.25705C8.856 1.25705 8.64907 1.29021 8.65316 1.769C8.6798 4.80445 8.66648 7.84093 8.66648 10.9147C10.0505 10.752 11.374 10.5323 12.4404 9.54882C13.1575 8.88452 13.5263 8.0285 13.8172 7.11756C13.8879 6.89785 13.8838 6.48643 14.1911 6.54343C14.44 6.58903 14.2935 6.95796 14.2935 7.18181C14.3048 9.83899 14.3007 12.4972 14.2997 15.1544C14.3128 15.2925 14.3086 15.4318 14.2874 15.5689C14.2382 15.7534 14.104 15.7627 14.0006 15.6156C13.9455 15.5094 13.9042 15.3966 13.8776 15.2798C13.1052 13.1884 11.7735 11.722 9.51571 11.2961C9.34976 11.265 9.17561 11.2743 9.00351 11.2484C8.70643 11.2028 8.63575 11.3355 8.64087 11.6194C8.68082 13.7056 8.57531 15.7938 8.75458 17.8779C8.91951 19.8044 9.49318 20.4325 11.4027 20.705C11.6393 20.7392 11.877 20.761 12.1136 20.79C12.1566 20.7922 12.1971 20.8113 12.2264 20.8432C12.2557 20.8752 12.2715 20.9174 12.2703 20.961C12.2703 21.0646 12.1771 21.0885 12.087 21.0885C11.9507 21.0885 11.8145 21.0885 11.6772 21.0885C7.94018 21.0885 4.20348 21.0861 0.467129 21.0812C0.297078 21.0729 0.135222 21.074 0 20.9289Z" fill="#000020"/>
<path d="M94.1791 12.0681C92.6773 12.0681 91.1755 12.0806 89.6717 12.0598C89.3306 12.0598 89.2414 12.1531 89.2619 12.4858C89.3695 13.919 89.6235 15.2901 90.6531 16.3865C91.4132 17.1949 92.3771 17.5369 93.4364 17.6395C95.6009 17.8468 97.4551 17.2799 98.7633 15.3906C98.8657 15.2507 98.9559 15.06 99.1556 15.1492C99.2755 15.203 99.2212 15.3668 99.173 15.4787C98.4242 17.227 97.6364 18.967 96.0076 20.077C93.2715 21.9424 90.4277 21.8968 87.543 20.4221C83.2486 18.2261 82.0716 11.1986 86.5503 7.47505C89.5354 4.98784 93.8359 4.89871 96.7339 7.29266C98.0851 8.4088 98.8545 9.86382 99.1229 11.6069C99.1802 11.9759 99.1147 12.0816 98.7336 12.0774C97.2175 12.0567 95.6983 12.0681 94.1791 12.0681ZM91.5494 11.6712C92.2143 11.6712 92.8811 11.6619 93.5439 11.6712C93.8318 11.6774 93.9137 11.579 93.8892 11.2857C93.8082 10.2898 93.756 9.2928 93.6915 8.29687C93.6488 7.78028 93.4889 7.28061 93.2243 6.83667C92.7039 5.91951 91.6119 5.69669 90.7657 6.32782C90.2648 6.70091 89.9892 7.23359 89.7885 7.80565C89.3859 8.95806 89.4186 10.1789 89.2711 11.3707C89.2363 11.6557 89.3961 11.6753 89.6071 11.6743C90.2546 11.6681 90.902 11.6712 91.5494 11.6712Z" fill="#000020"/>
<path d="M49.259 5.9383C49.049 6.3746 48.8862 6.74768 48.6915 7.10418C48.5409 7.37881 48.2654 7.4099 47.9744 7.40472C47.2748 7.39436 46.5751 7.40472 45.8765 7.38503C45.5804 7.37467 45.5097 7.47727 45.5107 7.7633C45.52 10.6454 45.5159 13.5274 45.5179 16.4095C45.5198 16.6338 45.5355 16.8577 45.565 17.08C45.8386 19.2221 47.1918 19.4636 48.9118 19.1734C49.0951 19.1434 49.2724 19.0698 49.4547 19.0325C49.551 19.0107 49.6698 18.9775 49.7282 19.0895C49.7486 19.1373 49.7505 19.1912 49.7334 19.2404C49.7163 19.2895 49.6815 19.3304 49.636 19.3548C47.5872 20.8108 45.4626 22.0306 42.8155 21.1818C41.2789 20.6885 40.4123 19.5237 40.3078 17.8904C40.0947 14.5627 40.2494 11.2319 40.2207 7.90216C40.2207 7.45965 40.1029 7.36534 39.688 7.38399C38.7384 7.41716 37.7877 7.39436 36.8125 7.34876C40.2391 5.55693 43.1413 3.15261 45.4882 0.00317383V0.752449C45.4882 2.34012 45.4943 3.9278 45.4769 5.51962C45.4769 5.8585 45.562 5.96214 45.9041 5.95488C46.9992 5.92379 48.0912 5.9383 49.259 5.9383Z" fill="#000020"/>
<path d="M68.774 20.8997C69.0465 20.7256 69.3313 20.7048 69.612 20.6582C70.5565 20.5017 70.9345 20.0924 71.0584 19.1389C71.2705 17.5222 71.1312 15.9004 71.1394 14.2806C71.1455 12.9893 71.2346 11.6897 71.0584 10.4067C70.8638 8.98899 70.3239 8.47601 68.9379 8.2418C68.7986 8.21796 68.6367 8.20967 68.6203 8.05422C68.6039 7.89877 68.7586 7.84695 68.898 7.81689C71.3295 7.23153 73.7233 6.49573 76.0657 5.61363C76.1239 5.59978 76.1832 5.59111 76.2429 5.58772V9.87921L76.3259 9.90201C76.4448 9.60458 76.5574 9.30508 76.6845 9.0118C77.1844 7.85939 77.84 6.81787 78.8777 6.08621C80.3611 5.04054 82.4713 5.52451 83.1915 7.05519C83.6484 8.0252 83.4507 9.30197 82.7305 10.0367C82.4079 10.3748 81.9889 10.6025 81.5322 10.688C81.0754 10.7735 80.6036 10.7124 80.1828 10.5135C79.688 10.2938 79.4063 9.85745 79.0806 9.4626C78.722 9.02838 78.4044 8.49259 77.7283 8.62421C77.0225 8.76204 76.8863 9.41183 76.6845 9.97145C76.4437 10.6337 76.5462 11.3394 76.5329 12.0224C76.4909 14.1438 76.5001 16.2714 76.4888 18.3876C76.4888 18.457 76.4888 18.5254 76.4888 18.5948C76.539 20.0716 76.9191 20.51 78.3543 20.7463C78.4388 20.7589 78.5239 20.7669 78.6093 20.7701C78.721 20.7774 78.8142 20.8147 78.8214 20.9432C78.8275 21.1018 78.6995 21.0758 78.6042 21.0821C78.5089 21.0883 78.4342 21.0821 78.3481 21.0821C75.3288 21.0745 72.3096 21.0672 69.2903 21.0603C69.1254 21.0582 68.941 21.1277 68.774 20.8997Z" fill="#000020"/>
<path d="M71.9871 27.6062C72.5075 26.2745 73.0033 25.0516 73.4571 23.8121C73.58 23.4763 73.7644 23.4225 74.0645 23.4359C74.2643 23.4463 74.3268 23.4971 74.3258 23.7002C74.3189 25.1842 74.3189 26.6697 74.3258 28.1565C74.3258 28.3471 74.2735 28.429 74.0656 28.4321C73.831 28.4321 73.7839 28.3358 73.7859 28.1212C73.7921 26.974 73.7859 25.8257 73.6927 24.6505C73.3936 25.4029 73.0938 26.1556 72.7933 26.9087C72.6355 27.3074 72.4801 27.707 72.3272 28.1078C72.2647 28.2705 72.2165 28.4187 71.9881 28.4269C71.732 28.4394 71.6746 28.2777 71.6039 28.0974C71.1791 27.0148 70.754 25.929 70.3285 24.8402C70.2988 24.7656 70.3009 24.6681 70.1411 24.6505C70.1411 25.7667 70.1411 26.8766 70.1411 27.9865C70.1411 28.1616 70.2579 28.4238 69.8952 28.4269C69.5326 28.4301 69.6289 28.1886 69.6278 27.9989C69.6278 26.6171 69.6278 25.2354 69.6278 23.8536C69.6278 23.6919 69.5162 23.4297 69.8419 23.4453C70.0735 23.4556 70.3337 23.3344 70.4658 23.7064C70.811 24.6764 71.2013 25.6309 71.5763 26.5905C71.6941 26.8942 71.8191 27.1927 71.9871 27.6062Z" fill="#000020"/>
<path d="M86.1917 29.997C85.9047 30.0157 85.6172 29.97 85.3497 29.8633C84.6439 29.6001 84.438 28.9182 84.9133 28.3399C85.0393 28.1865 85.0587 28.1451 84.9215 27.9948C84.6439 27.6943 84.6889 27.373 84.9502 27.0714C85.0413 26.9678 85.1468 26.9098 85.0342 26.7336C84.7023 26.2154 84.7023 25.6734 85.1151 25.2081C85.5279 24.7428 86.1098 24.6899 86.6753 24.863C87.0092 24.9666 87.2674 25.0703 87.3227 24.5832C87.3442 24.3956 87.4907 24.4485 87.5993 24.4588C87.6296 24.4609 87.6588 24.471 87.684 24.4883C87.7092 24.5055 87.7295 24.5291 87.7427 24.5568C87.7559 24.5845 87.7616 24.6153 87.7593 24.6459C87.757 24.6766 87.7466 24.7061 87.7294 24.7314C87.3288 25.205 87.6034 25.7439 87.5522 26.2486C87.4743 27.002 86.7111 27.4248 85.8291 27.2414C85.6468 27.2041 85.447 27.0963 85.3364 27.3347C85.1981 27.629 85.3261 27.8021 85.6334 27.8218C86.0586 27.8487 86.4888 27.8217 86.9098 27.8767C87.6269 27.9637 87.9711 28.2912 88.0019 28.8229C88.0347 29.4167 87.7406 29.739 87.0164 29.9317C86.7634 29.997 86.5144 29.9877 86.1917 29.997ZM86.1917 29.5825C86.6015 29.568 86.8863 29.5307 87.1516 29.4022C87.2545 29.3576 87.341 29.2814 87.3985 29.1842C87.4561 29.0871 87.4819 28.974 87.4722 28.8612C87.4714 28.7468 87.432 28.6361 87.3604 28.5475C87.2889 28.4589 87.1895 28.3978 87.0789 28.3741C86.5979 28.2498 86.0953 28.2373 85.6089 28.3378C85.4717 28.3602 85.3477 28.4334 85.261 28.5432C85.1743 28.6529 85.131 28.7914 85.1397 28.9317C85.1448 29.2301 85.3312 29.4053 85.6027 29.4737C85.8291 29.5276 86.0668 29.5555 86.1887 29.5825H86.1917ZM86.2061 25.2164C86.0977 25.2109 85.9893 25.2274 85.8873 25.2649C85.7853 25.3024 85.6918 25.3602 85.6122 25.4348C85.5326 25.5095 85.4686 25.5995 85.424 25.6996C85.3793 25.7996 85.3549 25.9077 85.3522 26.0175C85.3494 26.1272 85.3684 26.2364 85.408 26.3386C85.4477 26.4409 85.5071 26.534 85.5829 26.6126C85.6586 26.6912 85.7492 26.7537 85.8492 26.7964C85.9492 26.839 86.0566 26.861 86.1651 26.8611C86.6589 26.8808 87.0277 26.5408 87.0369 26.0579C87.042 25.5542 86.7121 25.2195 86.2071 25.2122L86.2061 25.2164Z" fill="#000020"/>
<path d="M94.087 29.9877C93.7267 30.0211 93.364 29.9575 93.0359 29.8032C92.4305 29.5078 92.2676 28.8705 92.702 28.3585C92.8372 28.2 92.8925 28.1388 92.7143 27.9772C92.536 27.8155 92.4438 27.5046 92.6057 27.3191C92.9017 26.9802 92.8013 26.7107 92.6743 26.3408C92.5941 26.1276 92.5827 25.8941 92.642 25.674C92.7013 25.4538 92.8281 25.2584 93.0042 25.1158C93.4651 24.7282 94.005 24.6826 94.5408 24.8837C94.8706 25.007 95.0684 25.0039 95.1114 24.6132C95.1298 24.437 95.2302 24.4277 95.3562 24.4391C95.3911 24.4376 95.4257 24.446 95.4561 24.4632C95.4865 24.4805 95.5117 24.5059 95.5287 24.5368C95.5457 24.5676 95.5538 24.6026 95.5523 24.6379C95.5508 24.6731 95.5397 24.7073 95.5201 24.7365C95.1104 25.1987 95.4177 25.7138 95.3705 26.1988C95.2917 26.9678 94.5336 27.4289 93.6793 27.2538C93.4211 27.2009 93.1302 27.0724 93.0933 27.4694C93.0585 27.8487 93.3822 27.8227 93.6373 27.8259C94.0798 27.8259 94.5234 27.8041 94.9598 27.9108C95.4341 28.0279 95.7619 28.287 95.8131 28.8052C95.8612 29.2943 95.598 29.6716 95.0837 29.854C94.7648 29.9703 94.4248 30.0159 94.087 29.9877ZM94.048 28.2653V28.2953C93.8797 28.2797 93.7103 28.2797 93.542 28.2953C93.2213 28.3554 92.9663 28.5109 92.9519 28.8881C92.9386 29.2456 93.163 29.3969 93.4641 29.483C93.9252 29.6102 94.4135 29.5943 94.8655 29.4374C94.9908 29.4057 95.1013 29.3306 95.1776 29.2251C95.2539 29.1197 95.2914 28.9906 95.2835 28.8601C95.2712 28.5689 95.0786 28.3938 94.801 28.342C94.5551 28.2995 94.3 28.2912 94.048 28.2653ZM94.8573 26.0299C94.8522 25.5521 94.4957 25.2112 94.0009 25.2112C93.5061 25.2112 93.1548 25.5563 93.1517 26.0351C93.1486 26.5138 93.5123 26.8579 94.004 26.8641C94.1146 26.8676 94.2247 26.8486 94.3279 26.8083C94.4311 26.7679 94.5252 26.7071 94.6048 26.6293C94.6844 26.5515 94.7477 26.4584 94.7911 26.3555C94.8344 26.2525 94.857 26.1418 94.8573 26.0299Z" fill="#000020"/>
<path d="M91.4846 26.9055C91.4846 27.1978 91.4846 27.4911 91.4846 27.7833C91.4846 27.9201 91.4744 28.0942 91.6567 28.1025C91.8391 28.1108 91.8616 28.1999 91.8329 28.3315C91.794 28.5119 91.6434 28.4248 91.54 28.4352C91.4764 28.4403 91.373 28.4258 91.3494 28.3844C91.0206 27.8061 90.7122 28.2352 90.3721 28.3771C89.4153 28.7751 88.5169 28.2341 88.5518 27.3087C88.5712 26.7749 88.8908 26.4931 89.3498 26.376C89.7093 26.2827 90.0925 26.2848 90.4561 26.207C90.6241 26.1718 90.9161 26.3604 90.9468 26.0163C90.9735 25.7137 90.8997 25.4308 90.5996 25.2733C90.1898 25.0577 89.5659 25.1831 89.3344 25.5842C89.1951 25.8246 89.0209 25.8744 88.8437 25.7614C88.6173 25.6174 88.8007 25.4267 88.8908 25.2785C89.1562 24.8442 89.8528 24.6235 90.4971 24.7603C91.1036 24.8836 91.3638 25.1634 91.4795 25.7842C91.5502 26.1531 91.4928 26.5283 91.4846 26.9055ZM90.3496 26.6589C90.0547 26.6465 89.7604 26.6941 89.484 26.7988C89.3612 26.8445 89.2572 26.9307 89.1888 27.0435C89.1204 27.1563 89.0916 27.2892 89.107 27.4206C89.1077 27.5421 89.1451 27.6605 89.2141 27.7599C89.2831 27.8594 89.3805 27.9351 89.4932 27.9771C90.0187 28.1906 90.6969 27.8921 90.8915 27.3553C91.1005 26.7843 90.9837 26.6185 90.3496 26.6589Z" fill="#000020"/>
<path d="M98.1856 26.7657C97.8619 26.7657 97.5361 26.7823 97.2134 26.7657C96.9512 26.7481 96.9266 26.8807 96.9748 27.0766C97.0772 27.5181 97.2821 27.9057 97.7574 28.0093C98.2112 28.113 98.663 28.0684 98.8904 27.5627C99.0021 27.3139 99.1107 27.4487 99.2459 27.5077C99.46 27.601 99.3995 27.7305 99.3114 27.8756C99.0195 28.3555 98.5606 28.4974 98.0442 28.5057C97.4296 28.5161 96.9256 28.285 96.6521 27.7181C96.4799 27.3781 96.3916 27.001 96.3946 26.619C96.3976 26.237 96.4919 25.8614 96.6695 25.5242C97.025 24.8205 97.8394 24.5511 98.6107 24.835C99.2131 25.0568 99.6536 25.9045 99.5409 26.574C99.5071 26.775 99.4026 26.775 99.2612 26.775C98.9027 26.7674 98.5441 26.7643 98.1856 26.7657ZM97.9664 26.3439C98.2032 26.3315 98.4405 26.3315 98.6773 26.3439C99.0062 26.3771 99.0605 26.2196 98.9846 25.9522C98.8668 25.549 98.6497 25.2454 98.1999 25.1843C97.7502 25.1231 97.3927 25.2506 97.154 25.6475C97.0413 25.8361 96.8908 26.062 96.9963 26.2693C97.0874 26.4444 97.3353 26.3222 97.5085 26.3408C97.6609 26.3507 97.8138 26.3517 97.9664 26.3439Z" fill="#000020"/>
<path d="M78.6436 26.5853C78.6436 27.5967 78.2083 28.2735 77.4389 28.4455C76.2598 28.7098 75.427 28.0061 75.3625 26.691C75.2959 25.3251 76.3131 24.4442 77.5465 24.7986C78.2359 24.9966 78.6406 25.6557 78.6436 26.5853ZM75.9454 26.5853C75.9351 27.4527 76.2977 27.9812 76.9329 28.0227C77.5967 28.0662 78.0321 27.6081 78.0905 26.8019C78.155 25.894 77.7934 25.2857 77.149 25.2173C76.4063 25.1365 75.9566 25.6443 75.9454 26.5822V26.5853Z" fill="#000020"/>
<path d="M82.4915 26.5769C82.4915 26.3365 82.4833 26.095 82.4915 25.8515C82.5048 25.5302 82.5478 25.2038 82.053 25.2815C81.9045 25.3053 81.841 25.2089 81.8379 25.0639C81.8379 24.8939 81.9035 24.7913 82.0786 24.8234C82.554 24.9094 82.4884 24.5892 82.4884 24.2949C82.4884 24.1322 82.4095 23.9311 82.5621 23.8161C82.638 23.7591 82.7998 23.7736 82.9043 23.8088C83.0764 23.869 83.0201 24.0493 83.0016 24.1674C82.9207 24.6939 83.1041 24.9177 83.646 24.8245C83.8007 24.7986 84.0045 24.7706 84.0035 25.0493C84.0025 25.3281 83.8119 25.3064 83.648 25.2784C83.1061 25.1841 82.9494 25.4162 82.9996 25.9416C83.0446 26.4194 83.0119 26.9044 83.0088 27.3863C83.0088 27.8516 83.2301 28.0444 83.6818 27.977C83.8406 27.9532 84.0291 27.8537 84.0486 28.1522C84.065 28.4029 83.9113 28.4175 83.7279 28.4423C82.8418 28.5605 82.4986 28.2589 82.4853 27.349C82.4894 27.0951 82.4915 26.8319 82.4915 26.5769Z" fill="#000020"/>
<path d="M80.1733 25.3032C80.5021 24.9322 80.8371 24.7685 81.254 24.7851C81.4476 24.7913 81.5347 24.8462 81.5111 25.0524C81.4917 25.2214 81.4732 25.3364 81.2448 25.3115C80.5164 25.2328 80.1958 25.809 80.1671 26.4598C80.1446 26.9935 80.161 27.5283 80.161 28.063C80.161 28.2506 80.2009 28.4351 79.8957 28.4299C79.5904 28.4247 79.6467 28.2226 79.6457 28.0444C79.6457 27.1117 79.6375 26.179 79.6457 25.2514C79.6457 25.1022 79.5084 24.8649 79.8362 24.8193C80.1641 24.7737 80.163 24.9975 80.1733 25.3032Z" fill="#000020"/>
<path d="M101.168 4.17849C101.168 3.57948 101.168 2.97944 101.175 2.38044C101.175 2.34313 101.269 2.28199 101.326 2.2768C101.475 2.25815 101.523 2.38044 101.567 2.49444C101.718 2.87581 101.866 3.25822 102.043 3.71317C102.338 3.33076 102.39 2.89965 102.572 2.53382C102.635 2.40842 102.667 2.2623 102.842 2.27577C103.061 2.29235 102.988 2.47578 102.99 2.59496C103 3.05924 102.99 3.52767 102.99 3.98987C102.99 4.07693 102.974 4.17331 102.864 4.17538C102.755 4.17746 102.728 4.08729 102.727 3.99713C102.738 3.67977 102.703 3.36249 102.625 3.0551C102.512 3.32869 102.398 3.60125 102.286 3.87381C102.235 3.99609 102.221 4.17849 102.057 4.1702C101.893 4.16191 101.899 3.97537 101.837 3.85929C101.697 3.59606 101.676 3.27376 101.44 3.01986C101.289 3.41367 101.491 3.8251 101.311 4.17745L101.168 4.17849Z" fill="#000020"/>
<path d="M100.105 3.31719C100.105 3.1804 100.094 3.04256 100.105 2.90266C100.129 2.64046 100.08 2.46118 99.7605 2.49848C99.6694 2.50988 99.53 2.53475 99.5218 2.38967C99.5136 2.24458 99.6499 2.25805 99.7462 2.25702C100.068 2.25287 100.39 2.25287 100.711 2.25702C100.792 2.25702 100.898 2.24769 100.916 2.36065C100.934 2.47361 100.838 2.51507 100.755 2.49952C100.294 2.41351 100.333 2.71819 100.345 3.01769C100.355 3.34207 100.345 3.66748 100.345 3.99289C100.345 4.0758 100.345 4.18047 100.228 4.17425C100.11 4.16803 100.11 4.07061 100.109 3.98563C100.104 3.76282 100.105 3.54001 100.105 3.31719Z" fill="#000020"/>
</g>
<defs>
<clipPath id="clip0_1_28283">
<rect width="103" height="30" fill="white"/>
</clipPath>
</defs>
</svg>
