<svg width="42" height="42" viewBox="0 0 42 42" fill="none" xmlns="http://www.w3.org/2000/svg">
<rect x="0.5" y="0.5" width="41" height="41" rx="20.5" stroke="black" stroke-opacity="0.1"/>
<path d="M25.5003 17V23.5C25.5003 23.6326 25.4476 23.7598 25.3538 23.8536C25.2601 23.9473 25.1329 24 25.0003 24C24.8677 24 24.7405 23.9473 24.6467 23.8536C24.553 23.7598 24.5003 23.6326 24.5003 23.5V18.2069L17.354 25.3538C17.2602 25.4476 17.133 25.5003 17.0003 25.5003C16.8676 25.5003 16.7403 25.4476 16.6465 25.3538C16.5527 25.2599 16.5 25.1327 16.5 25C16.5 24.8673 16.5527 24.7401 16.6465 24.6462L23.7934 17.5H18.5003C18.3677 17.5 18.2405 17.4473 18.1467 17.3536C18.053 17.2598 18.0003 17.1326 18.0003 17C18.0003 16.8674 18.053 16.7402 18.1467 16.6464C18.2405 16.5527 18.3677 16.5 18.5003 16.5H25.0003C25.1329 16.5 25.2601 16.5527 25.3538 16.6464C25.4476 16.7402 25.5003 16.8674 25.5003 17Z" fill="black"/>
</svg>
