<svg width="40" height="40" viewBox="0 0 40 40" fill="none" xmlns="http://www.w3.org/2000/svg">
<g clip-path="url(#clip0_396_4591)">
<circle cx="20" cy="20" r="20" fill="#666666"/>
<path d="M39.5327 24.2539C39.5423 24.2101 39.5579 24.168 39.5672 24.1241C39.6694 23.6414 39.7327 23.1499 39.799 22.6592C39.8252 22.4651 39.8701 22.2749 39.8907 22.0797C39.9631 21.3916 40 20.6974 40 20C40 8.96667 31.0334 0 20.0001 0C8.96675 0 0 8.96667 0 20C0 20.6974 0.0367778 21.3916 0.109333 22.0797C0.129111 22.2676 0.172444 22.4508 0.197555 22.6378C0.264333 23.1358 0.328999 23.6344 0.432777 24.1242C0.438777 24.1526 0.448999 24.1798 0.45511 24.2081C1.32177 28.2142 3.40543 31.9092 6.46665 34.7222C6.45843 34.7143 6.4552 34.7026 6.4472 34.6944C6.45509 34.7017 6.46176 34.71 6.46965 34.7173C10.1697 38.1239 14.975 40 19.9998 40C25.0247 40 29.8306 38.1239 33.5285 34.7184C33.5375 34.7102 33.5449 34.7008 33.5539 34.6926C33.5454 34.7012 33.542 34.7139 33.5331 34.7222C36.5825 31.9201 38.6599 28.242 39.5327 24.2539ZM13.3333 13.6222C13.3333 10.0333 16 6.98889 19.4111 6.68889C21.2999 6.52222 23.111 7.14444 24.4999 8.42222C25.8778 9.67778 26.6666 11.4667 26.6666 13.3333V15.5556C26.6666 17.4222 25.8777 19.2111 24.4999 20.4667C23.2555 21.6111 21.6777 22.2222 20.0111 22.2222C19.8111 22.2222 19.6111 22.2111 19.4111 22.2C16 21.9 13.3333 18.8556 13.3333 15.2667V13.6222ZM32.0252 33.0821C28.7369 36.11 24.4667 37.7778 19.9999 37.7778C15.5332 37.7778 11.2635 36.11 7.97309 33.081C7.37109 32.5289 6.8282 31.9262 6.3132 31.3027C7.26087 26.7624 11.2919 23.3332 16.1111 23.3332H23.8888C28.7079 23.3332 32.7387 26.7622 33.6866 31.3022C33.1711 31.9262 32.6278 32.5296 32.0252 33.0821Z" fill="#E6E6E6"/>
</g>
<defs>
<clipPath id="clip0_396_4591">
<rect width="40" height="40" fill="white"/>
</clipPath>
</defs>
</svg>
