<svg width="44" height="44" viewBox="0 0 44 44" fill="none" xmlns="http://www.w3.org/2000/svg">
<rect x="0.5" y="0.5" width="43" height="43" rx="21.5" fill="white"/>
<rect x="0.5" y="0.5" width="43" height="43" rx="21.5" stroke="#D0D5DD"/>
<path d="M22.8335 13.667L15.4114 22.5735C15.1207 22.9223 14.9754 23.0967 14.9732 23.244C14.9713 23.3721 15.0283 23.4939 15.1279 23.5744C15.2425 23.667 15.4695 23.667 15.9236 23.667H22.0002L21.1669 30.3337L28.589 21.4271C28.8797 21.0783 29.025 20.9039 29.0272 20.7566C29.0292 20.6286 28.9721 20.5067 28.8725 20.4262C28.7579 20.3337 28.5309 20.3337 28.0768 20.3337H22.0002L22.8335 13.667Z" stroke="#344054" stroke-width="1.5" stroke-linecap="round" stroke-linejoin="round"/>
</svg>
