<svg width="44" height="44" viewBox="0 0 44 44" fill="none" xmlns="http://www.w3.org/2000/svg">
<rect x="0.5" y="0.5" width="43" height="43" rx="21.5" fill="white"/>
<rect x="0.5" y="0.5" width="43" height="43" rx="21.5" stroke="#D0D5DD"/>
<path d="M18.9836 19.3778C19.5636 20.5858 20.3542 21.718 21.3555 22.7193C22.3568 23.7206 23.4891 24.5113 24.6971 25.0913C24.801 25.1412 24.8529 25.1661 24.9187 25.1853C25.1523 25.2534 25.4392 25.2045 25.637 25.0628C25.6927 25.0229 25.7403 24.9753 25.8356 24.88C26.1269 24.5887 26.2726 24.443 26.4191 24.3478C26.9715 23.9886 27.6837 23.9886 28.2361 24.3478C28.3825 24.443 28.5282 24.5887 28.8196 24.88L28.9819 25.0424C29.4248 25.4853 29.6462 25.7067 29.7665 25.9446C30.0058 26.4175 30.0058 26.9761 29.7665 27.449C29.6462 27.6869 29.4248 27.9083 28.9819 28.3512L28.8506 28.4825C28.4092 28.9239 28.1886 29.1446 27.8885 29.3131C27.5556 29.5001 27.0385 29.6346 26.6567 29.6334C26.3126 29.6324 26.0774 29.5657 25.607 29.4322C23.0792 28.7147 20.6939 27.361 18.7039 25.371C16.7139 23.381 15.3602 20.9957 14.6427 18.4679C14.5092 17.9975 14.4424 17.7623 14.4414 17.4182C14.4403 17.0363 14.5747 16.5193 14.7618 16.1863C14.9303 15.8863 15.151 15.6656 15.5923 15.2243L15.7237 15.0929C16.1666 14.65 16.388 14.4286 16.6258 14.3083C17.0988 14.0691 17.6573 14.0691 18.1303 14.3083C18.3681 14.4286 18.5896 14.65 19.0324 15.0929L19.1948 15.2553C19.4862 15.5466 19.6318 15.6923 19.7271 15.8388C20.0862 16.3912 20.0862 17.1034 19.7271 17.6558C19.6318 17.8022 19.4862 17.9479 19.1948 18.2393C19.0996 18.3345 19.0519 18.3821 19.0121 18.4378C18.8704 18.6357 18.8215 18.9226 18.8896 19.1562C18.9087 19.2219 18.9337 19.2739 18.9836 19.3778Z" stroke="#344054" stroke-width="1.5" stroke-linecap="round" stroke-linejoin="round"/>
</svg>
