<svg width="61" height="60" viewBox="0 0 61 60" fill="none" xmlns="http://www.w3.org/2000/svg">
<rect x="0.5" width="60" height="60" rx="30" fill="#DE2828"/>
<g clip-path="url(#clip0_493_30462)">
<path d="M22.1605 33.1374C21.5104 32.2903 21.1909 31.2356 21.2617 30.1702C21.3324 29.1048 21.7886 28.1016 22.545 27.3479C26.9312 22.9617 34.0686 22.9617 38.4549 27.3479C39.2112 28.1016 39.6674 29.1048 39.7381 30.1702C39.8089 31.2356 39.4894 32.2903 38.8393 33.1374C38.6732 33.3498 38.4428 33.5027 38.1825 33.5734C37.9222 33.6441 37.6461 33.6287 37.3953 33.5296L33.6239 32.0916L33.6172 32.085C33.4253 32.0091 33.2551 31.8869 33.1218 31.7291C32.9886 31.5714 32.8965 31.3832 32.8538 31.1812C32.8488 31.1564 32.8455 31.1321 32.8427 31.1072L32.6295 28.5937C31.3749 28.1666 29.6238 28.1744 28.357 28.6113L28.1565 31.1C28.1544 31.1243 28.1509 31.1485 28.146 31.1724C28.1053 31.3762 28.0144 31.5666 27.8816 31.7264C27.7488 31.8862 27.5782 32.0104 27.3853 32.0878L27.3748 32.0916L23.6062 33.5279C23.3553 33.6277 23.0789 33.6435 22.8184 33.5731C22.5578 33.5027 22.327 33.3498 22.1605 33.1374Z" fill="white"/>
</g>
<defs>
<clipPath id="clip0_493_30462">
<rect width="20" height="20" fill="white" transform="translate(44.6421 30) rotate(135)"/>
</clipPath>
</defs>
</svg>
