<svg width="452" height="228" viewBox="0 0 452 228" fill="none" xmlns="http://www.w3.org/2000/svg">
<path d="M3.612 222.124C4.628 221.308 5.424 220.64 6 220.12C6.576 219.592 7.06 219.044 7.452 218.476C7.852 217.9 8.052 217.336 8.052 216.784C8.052 216.264 7.924 215.856 7.668 215.56C7.42 215.256 7.016 215.104 6.456 215.104C5.912 215.104 5.488 215.276 5.184 215.62C4.888 215.956 4.728 216.408 4.704 216.976H3.648C3.68 216.08 3.952 215.388 4.464 214.9C4.976 214.412 5.636 214.168 6.444 214.168C7.268 214.168 7.92 214.396 8.4 214.852C8.888 215.308 9.132 215.936 9.132 216.736C9.132 217.4 8.932 218.048 8.532 218.68C8.14 219.304 7.692 219.856 7.188 220.336C6.684 220.808 6.04 221.36 5.256 221.992H9.384V222.904H3.612V222.124ZM10.6463 218.572C10.6463 217.196 10.8703 216.124 11.3183 215.356C11.7663 214.58 12.5503 214.192 13.6703 214.192C14.7823 214.192 15.5623 214.58 16.0103 215.356C16.4583 216.124 16.6823 217.196 16.6823 218.572C16.6823 219.972 16.4583 221.06 16.0103 221.836C15.5623 222.612 14.7823 223 13.6703 223C12.5503 223 11.7663 222.612 11.3183 221.836C10.8703 221.06 10.6463 219.972 10.6463 218.572ZM15.6023 218.572C15.6023 217.876 15.5543 217.288 15.4583 216.808C15.3703 216.32 15.1823 215.928 14.8943 215.632C14.6143 215.336 14.2063 215.188 13.6703 215.188C13.1263 215.188 12.7103 215.336 12.4223 215.632C12.1423 215.928 11.9543 216.32 11.8583 216.808C11.7703 217.288 11.7263 217.876 11.7263 218.572C11.7263 219.292 11.7703 219.896 11.8583 220.384C11.9543 220.872 12.1423 221.264 12.4223 221.56C12.7103 221.856 13.1263 222.004 13.6703 222.004C14.2063 222.004 14.6143 221.856 14.8943 221.56C15.1823 221.264 15.3703 220.872 15.4583 220.384C15.5543 219.896 15.6023 219.292 15.6023 218.572ZM17.8935 215.32V214.324H20.1495V223H19.0455V215.32H17.8935ZM27.5573 215.272H23.3453V218.008C23.5293 217.752 23.8013 217.544 24.1613 217.384C24.5213 217.216 24.9093 217.132 25.3253 217.132C25.9893 217.132 26.5293 217.272 26.9453 217.552C27.3613 217.824 27.6573 218.18 27.8333 218.62C28.0173 219.052 28.1093 219.512 28.1093 220C28.1093 220.576 28.0013 221.092 27.7853 221.548C27.5693 222.004 27.2373 222.364 26.7893 222.628C26.3493 222.892 25.8013 223.024 25.1453 223.024C24.3053 223.024 23.6253 222.808 23.1053 222.376C22.5853 221.944 22.2693 221.368 22.1573 220.648H23.2253C23.3293 221.104 23.5493 221.46 23.8853 221.716C24.2213 221.972 24.6453 222.1 25.1573 222.1C25.7893 222.1 26.2653 221.912 26.5853 221.536C26.9053 221.152 27.0653 220.648 27.0653 220.024C27.0653 219.4 26.9053 218.92 26.5853 218.584C26.2653 218.24 25.7933 218.068 25.1693 218.068C24.7453 218.068 24.3733 218.172 24.0533 218.38C23.7413 218.58 23.5133 218.856 23.3693 219.208H22.3373V214.312H27.5573V215.272Z" fill="#5A5A5A"/>
<path d="M42.945 222.124C43.961 221.308 44.757 220.64 45.333 220.12C45.909 219.592 46.393 219.044 46.785 218.476C47.185 217.9 47.385 217.336 47.385 216.784C47.385 216.264 47.257 215.856 47.001 215.56C46.753 215.256 46.349 215.104 45.789 215.104C45.245 215.104 44.821 215.276 44.517 215.62C44.221 215.956 44.061 216.408 44.037 216.976H42.981C43.013 216.08 43.285 215.388 43.797 214.9C44.309 214.412 44.969 214.168 45.777 214.168C46.601 214.168 47.253 214.396 47.733 214.852C48.221 215.308 48.465 215.936 48.465 216.736C48.465 217.4 48.265 218.048 47.865 218.68C47.473 219.304 47.025 219.856 46.521 220.336C46.017 220.808 45.373 221.36 44.589 221.992H48.717V222.904H42.945V222.124ZM49.9794 218.572C49.9794 217.196 50.2034 216.124 50.6514 215.356C51.0994 214.58 51.8834 214.192 53.0034 214.192C54.1154 214.192 54.8954 214.58 55.3434 215.356C55.7914 216.124 56.0154 217.196 56.0154 218.572C56.0154 219.972 55.7914 221.06 55.3434 221.836C54.8954 222.612 54.1154 223 53.0034 223C51.8834 223 51.0994 222.612 50.6514 221.836C50.2034 221.06 49.9794 219.972 49.9794 218.572ZM54.9354 218.572C54.9354 217.876 54.8874 217.288 54.7914 216.808C54.7034 216.32 54.5154 215.928 54.2274 215.632C53.9474 215.336 53.5394 215.188 53.0034 215.188C52.4594 215.188 52.0434 215.336 51.7554 215.632C51.4754 215.928 51.2874 216.32 51.1914 216.808C51.1034 217.288 51.0594 217.876 51.0594 218.572C51.0594 219.292 51.1034 219.896 51.1914 220.384C51.2874 220.872 51.4754 221.264 51.7554 221.56C52.0434 221.856 52.4594 222.004 53.0034 222.004C53.5394 222.004 53.9474 221.856 54.2274 221.56C54.5154 221.264 54.7034 220.872 54.7914 220.384C54.8874 219.896 54.9354 219.292 54.9354 218.572ZM57.2265 215.32V214.324H59.4825V223H58.3785V215.32H57.2265ZM66.1943 216.388C66.0183 215.5 65.4703 215.056 64.5503 215.056C63.8383 215.056 63.3063 215.332 62.9543 215.884C62.6023 216.428 62.4303 217.328 62.4383 218.584C62.6223 218.168 62.9263 217.844 63.3503 217.612C63.7823 217.372 64.2623 217.252 64.7903 217.252C65.6143 217.252 66.2703 217.508 66.7583 218.02C67.2543 218.532 67.5023 219.24 67.5023 220.144C67.5023 220.688 67.3943 221.176 67.1783 221.608C66.9703 222.04 66.6503 222.384 66.2183 222.64C65.7943 222.896 65.2783 223.024 64.6703 223.024C63.8463 223.024 63.2023 222.84 62.7383 222.472C62.2743 222.104 61.9503 221.596 61.7663 220.948C61.5823 220.3 61.4903 219.5 61.4903 218.548C61.4903 215.612 62.5143 214.144 64.5623 214.144C65.3463 214.144 65.9623 214.356 66.4103 214.78C66.8583 215.204 67.1223 215.74 67.2023 216.388H66.1943ZM64.5623 218.176C64.2183 218.176 63.8943 218.248 63.5903 218.392C63.2863 218.528 63.0383 218.74 62.8463 219.028C62.6623 219.308 62.5703 219.652 62.5703 220.06C62.5703 220.668 62.7463 221.164 63.0983 221.548C63.4503 221.924 63.9543 222.112 64.6103 222.112C65.1703 222.112 65.6143 221.94 65.9423 221.596C66.2783 221.244 66.4463 220.772 66.4463 220.18C66.4463 219.556 66.2863 219.068 65.9663 218.716C65.6463 218.356 65.1783 218.176 64.5623 218.176Z" fill="#5A5A5A"/>
<path d="M82.279 222.124C83.295 221.308 84.091 220.64 84.667 220.12C85.243 219.592 85.727 219.044 86.119 218.476C86.519 217.9 86.719 217.336 86.719 216.784C86.719 216.264 86.591 215.856 86.335 215.56C86.087 215.256 85.683 215.104 85.123 215.104C84.579 215.104 84.155 215.276 83.851 215.62C83.555 215.956 83.395 216.408 83.371 216.976H82.315C82.347 216.08 82.619 215.388 83.131 214.9C83.643 214.412 84.303 214.168 85.111 214.168C85.935 214.168 86.587 214.396 87.067 214.852C87.555 215.308 87.799 215.936 87.799 216.736C87.799 217.4 87.599 218.048 87.199 218.68C86.807 219.304 86.359 219.856 85.855 220.336C85.351 220.808 84.707 221.36 83.923 221.992H88.051V222.904H82.279V222.124ZM89.3133 218.572C89.3133 217.196 89.5373 216.124 89.9853 215.356C90.4333 214.58 91.2173 214.192 92.3373 214.192C93.4493 214.192 94.2293 214.58 94.6773 215.356C95.1253 216.124 95.3493 217.196 95.3493 218.572C95.3493 219.972 95.1253 221.06 94.6773 221.836C94.2293 222.612 93.4493 223 92.3373 223C91.2173 223 90.4333 222.612 89.9853 221.836C89.5373 221.06 89.3133 219.972 89.3133 218.572ZM94.2693 218.572C94.2693 217.876 94.2213 217.288 94.1253 216.808C94.0373 216.32 93.8493 215.928 93.5613 215.632C93.2813 215.336 92.8733 215.188 92.3373 215.188C91.7933 215.188 91.3773 215.336 91.0893 215.632C90.8093 215.928 90.6213 216.32 90.5253 216.808C90.4373 217.288 90.3933 217.876 90.3933 218.572C90.3933 219.292 90.4373 219.896 90.5253 220.384C90.6213 220.872 90.8093 221.264 91.0893 221.56C91.3773 221.856 91.7933 222.004 92.3373 222.004C92.8733 222.004 93.2813 221.856 93.5613 221.56C93.8493 221.264 94.0373 220.872 94.1253 220.384C94.2213 219.896 94.2693 219.292 94.2693 218.572ZM96.5605 215.32V214.324H98.8165V223H97.7125V215.32H96.5605ZM106.032 215.176L102.696 223H101.592L104.976 215.284H100.344V214.348H106.032V215.176Z" fill="#5A5A5A"/>
<path d="M120.612 222.124C121.628 221.308 122.424 220.64 123 220.12C123.576 219.592 124.06 219.044 124.452 218.476C124.852 217.9 125.052 217.336 125.052 216.784C125.052 216.264 124.924 215.856 124.668 215.56C124.42 215.256 124.016 215.104 123.456 215.104C122.912 215.104 122.488 215.276 122.184 215.62C121.888 215.956 121.728 216.408 121.704 216.976H120.648C120.68 216.08 120.952 215.388 121.464 214.9C121.976 214.412 122.636 214.168 123.444 214.168C124.268 214.168 124.92 214.396 125.4 214.852C125.888 215.308 126.132 215.936 126.132 216.736C126.132 217.4 125.932 218.048 125.532 218.68C125.14 219.304 124.692 219.856 124.188 220.336C123.684 220.808 123.04 221.36 122.256 221.992H126.384V222.904H120.612V222.124ZM127.646 218.572C127.646 217.196 127.87 216.124 128.318 215.356C128.766 214.58 129.55 214.192 130.67 214.192C131.782 214.192 132.562 214.58 133.01 215.356C133.458 216.124 133.682 217.196 133.682 218.572C133.682 219.972 133.458 221.06 133.01 221.836C132.562 222.612 131.782 223 130.67 223C129.55 223 128.766 222.612 128.318 221.836C127.87 221.06 127.646 219.972 127.646 218.572ZM132.602 218.572C132.602 217.876 132.554 217.288 132.458 216.808C132.37 216.32 132.182 215.928 131.894 215.632C131.614 215.336 131.206 215.188 130.67 215.188C130.126 215.188 129.71 215.336 129.422 215.632C129.142 215.928 128.954 216.32 128.858 216.808C128.77 217.288 128.726 217.876 128.726 218.572C128.726 219.292 128.77 219.896 128.858 220.384C128.954 220.872 129.142 221.264 129.422 221.56C129.71 221.856 130.126 222.004 130.67 222.004C131.206 222.004 131.614 221.856 131.894 221.56C132.182 221.264 132.37 220.872 132.458 220.384C132.554 219.896 132.602 219.292 132.602 218.572ZM134.894 215.32V214.324H137.15V223H136.046V215.32H134.894ZM140.609 218.488C140.161 218.312 139.817 218.056 139.577 217.72C139.337 217.384 139.217 216.976 139.217 216.496C139.217 216.064 139.325 215.676 139.541 215.332C139.757 214.98 140.077 214.704 140.501 214.504C140.933 214.296 141.453 214.192 142.061 214.192C142.669 214.192 143.185 214.296 143.609 214.504C144.041 214.704 144.365 214.98 144.581 215.332C144.805 215.676 144.917 216.064 144.917 216.496C144.917 216.96 144.793 217.368 144.545 217.72C144.297 218.064 143.957 218.32 143.525 218.488C144.021 218.64 144.413 218.908 144.701 219.292C144.997 219.668 145.145 220.124 145.145 220.66C145.145 221.18 145.017 221.636 144.761 222.028C144.505 222.412 144.141 222.712 143.669 222.928C143.205 223.136 142.669 223.24 142.061 223.24C141.453 223.24 140.917 223.136 140.453 222.928C139.997 222.712 139.641 222.412 139.385 222.028C139.129 221.636 139.001 221.18 139.001 220.66C139.001 220.124 139.145 219.664 139.433 219.28C139.721 218.896 140.113 218.632 140.609 218.488ZM143.861 216.628C143.861 216.14 143.701 215.764 143.381 215.5C143.061 215.236 142.621 215.104 142.061 215.104C141.509 215.104 141.073 215.236 140.753 215.5C140.433 215.764 140.273 216.144 140.273 216.64C140.273 217.088 140.437 217.448 140.765 217.72C141.101 217.992 141.533 218.128 142.061 218.128C142.597 218.128 143.029 217.992 143.357 217.72C143.693 217.44 143.861 217.076 143.861 216.628ZM142.061 218.968C141.469 218.968 140.985 219.108 140.609 219.388C140.233 219.66 140.045 220.072 140.045 220.624C140.045 221.136 140.225 221.548 140.585 221.86C140.953 222.172 141.445 222.328 142.061 222.328C142.677 222.328 143.165 222.172 143.525 221.86C143.885 221.548 144.065 221.136 144.065 220.624C144.065 220.088 143.881 219.68 143.513 219.4C143.145 219.112 142.661 218.968 142.061 218.968Z" fill="#5A5A5A"/>
<path d="M159.945 222.124C160.961 221.308 161.757 220.64 162.333 220.12C162.909 219.592 163.393 219.044 163.785 218.476C164.185 217.9 164.385 217.336 164.385 216.784C164.385 216.264 164.257 215.856 164.001 215.56C163.753 215.256 163.349 215.104 162.789 215.104C162.245 215.104 161.821 215.276 161.517 215.62C161.221 215.956 161.061 216.408 161.037 216.976H159.981C160.013 216.08 160.285 215.388 160.797 214.9C161.309 214.412 161.969 214.168 162.777 214.168C163.601 214.168 164.253 214.396 164.733 214.852C165.221 215.308 165.465 215.936 165.465 216.736C165.465 217.4 165.265 218.048 164.865 218.68C164.473 219.304 164.025 219.856 163.521 220.336C163.017 220.808 162.373 221.36 161.589 221.992H165.717V222.904H159.945V222.124ZM166.979 218.572C166.979 217.196 167.203 216.124 167.651 215.356C168.099 214.58 168.883 214.192 170.003 214.192C171.115 214.192 171.895 214.58 172.343 215.356C172.791 216.124 173.015 217.196 173.015 218.572C173.015 219.972 172.791 221.06 172.343 221.836C171.895 222.612 171.115 223 170.003 223C168.883 223 168.099 222.612 167.651 221.836C167.203 221.06 166.979 219.972 166.979 218.572ZM171.935 218.572C171.935 217.876 171.887 217.288 171.791 216.808C171.703 216.32 171.515 215.928 171.227 215.632C170.947 215.336 170.539 215.188 170.003 215.188C169.459 215.188 169.043 215.336 168.755 215.632C168.475 215.928 168.287 216.32 168.191 216.808C168.103 217.288 168.059 217.876 168.059 218.572C168.059 219.292 168.103 219.896 168.191 220.384C168.287 220.872 168.475 221.264 168.755 221.56C169.043 221.856 169.459 222.004 170.003 222.004C170.539 222.004 170.947 221.856 171.227 221.56C171.515 221.264 171.703 220.872 171.791 220.384C171.887 219.896 171.935 219.292 171.935 218.572ZM174.227 215.32V214.324H176.483V223H175.379V215.32H174.227ZM179.762 220.672C179.842 221.128 180.026 221.48 180.314 221.728C180.61 221.976 181.006 222.1 181.502 222.1C182.166 222.1 182.654 221.84 182.966 221.32C183.286 220.8 183.438 219.924 183.422 218.692C183.254 219.052 182.974 219.336 182.582 219.544C182.19 219.744 181.754 219.844 181.274 219.844C180.738 219.844 180.258 219.736 179.834 219.52C179.418 219.296 179.09 218.972 178.85 218.548C178.61 218.124 178.49 217.612 178.49 217.012C178.49 216.156 178.738 215.468 179.234 214.948C179.73 214.42 180.434 214.156 181.346 214.156C182.466 214.156 183.25 214.52 183.698 215.248C184.154 215.976 184.382 217.06 184.382 218.5C184.382 219.508 184.29 220.34 184.106 220.996C183.93 221.652 183.626 222.152 183.194 222.496C182.77 222.84 182.186 223.012 181.442 223.012C180.626 223.012 179.99 222.792 179.534 222.352C179.078 221.912 178.818 221.352 178.754 220.672H179.762ZM181.454 218.92C181.99 218.92 182.43 218.756 182.774 218.428C183.118 218.092 183.29 217.64 183.29 217.072C183.29 216.472 183.122 215.988 182.786 215.62C182.45 215.252 181.978 215.068 181.37 215.068C180.81 215.068 180.362 215.244 180.026 215.596C179.698 215.948 179.534 216.412 179.534 216.988C179.534 217.572 179.698 218.04 180.026 218.392C180.354 218.744 180.83 218.92 181.454 218.92Z" fill="#5A5A5A"/>
<path d="M199.279 222.124C200.295 221.308 201.091 220.64 201.667 220.12C202.243 219.592 202.727 219.044 203.119 218.476C203.519 217.9 203.719 217.336 203.719 216.784C203.719 216.264 203.591 215.856 203.335 215.56C203.087 215.256 202.683 215.104 202.123 215.104C201.579 215.104 201.155 215.276 200.851 215.62C200.555 215.956 200.395 216.408 200.371 216.976H199.315C199.347 216.08 199.619 215.388 200.131 214.9C200.643 214.412 201.303 214.168 202.111 214.168C202.935 214.168 203.587 214.396 204.067 214.852C204.555 215.308 204.799 215.936 204.799 216.736C204.799 217.4 204.599 218.048 204.199 218.68C203.807 219.304 203.359 219.856 202.855 220.336C202.351 220.808 201.707 221.36 200.923 221.992H205.051V222.904H199.279V222.124ZM206.313 218.572C206.313 217.196 206.537 216.124 206.985 215.356C207.433 214.58 208.217 214.192 209.337 214.192C210.449 214.192 211.229 214.58 211.677 215.356C212.125 216.124 212.349 217.196 212.349 218.572C212.349 219.972 212.125 221.06 211.677 221.836C211.229 222.612 210.449 223 209.337 223C208.217 223 207.433 222.612 206.985 221.836C206.537 221.06 206.313 219.972 206.313 218.572ZM211.269 218.572C211.269 217.876 211.221 217.288 211.125 216.808C211.037 216.32 210.849 215.928 210.561 215.632C210.281 215.336 209.873 215.188 209.337 215.188C208.793 215.188 208.377 215.336 208.089 215.632C207.809 215.928 207.621 216.32 207.525 216.808C207.437 217.288 207.393 217.876 207.393 218.572C207.393 219.292 207.437 219.896 207.525 220.384C207.621 220.872 207.809 221.264 208.089 221.56C208.377 221.856 208.793 222.004 209.337 222.004C209.873 222.004 210.281 221.856 210.561 221.56C210.849 221.264 211.037 220.872 211.125 220.384C211.221 219.896 211.269 219.292 211.269 218.572ZM213.716 222.124C214.732 221.308 215.528 220.64 216.104 220.12C216.68 219.592 217.164 219.044 217.556 218.476C217.956 217.9 218.156 217.336 218.156 216.784C218.156 216.264 218.028 215.856 217.772 215.56C217.524 215.256 217.12 215.104 216.56 215.104C216.016 215.104 215.592 215.276 215.288 215.62C214.992 215.956 214.832 216.408 214.808 216.976H213.752C213.784 216.08 214.056 215.388 214.568 214.9C215.08 214.412 215.74 214.168 216.548 214.168C217.372 214.168 218.024 214.396 218.504 214.852C218.992 215.308 219.236 215.936 219.236 216.736C219.236 217.4 219.036 218.048 218.636 218.68C218.244 219.304 217.796 219.856 217.292 220.336C216.788 220.808 216.144 221.36 215.36 221.992H219.488V222.904H213.716V222.124ZM220.751 218.572C220.751 217.196 220.975 216.124 221.423 215.356C221.871 214.58 222.655 214.192 223.775 214.192C224.887 214.192 225.667 214.58 226.115 215.356C226.563 216.124 226.787 217.196 226.787 218.572C226.787 219.972 226.563 221.06 226.115 221.836C225.667 222.612 224.887 223 223.775 223C222.655 223 221.871 222.612 221.423 221.836C220.975 221.06 220.751 219.972 220.751 218.572ZM225.707 218.572C225.707 217.876 225.659 217.288 225.563 216.808C225.475 216.32 225.287 215.928 224.999 215.632C224.719 215.336 224.311 215.188 223.775 215.188C223.231 215.188 222.815 215.336 222.527 215.632C222.247 215.928 222.059 216.32 221.963 216.808C221.875 217.288 221.831 217.876 221.831 218.572C221.831 219.292 221.875 219.896 221.963 220.384C222.059 220.872 222.247 221.264 222.527 221.56C222.815 221.856 223.231 222.004 223.775 222.004C224.311 222.004 224.719 221.856 224.999 221.56C225.287 221.264 225.475 220.872 225.563 220.384C225.659 219.896 225.707 219.292 225.707 218.572Z" fill="#5A5A5A"/>
<path d="M241.612 222.124C242.628 221.308 243.424 220.64 244 220.12C244.576 219.592 245.06 219.044 245.452 218.476C245.852 217.9 246.052 217.336 246.052 216.784C246.052 216.264 245.924 215.856 245.668 215.56C245.42 215.256 245.016 215.104 244.456 215.104C243.912 215.104 243.488 215.276 243.184 215.62C242.888 215.956 242.728 216.408 242.704 216.976H241.648C241.68 216.08 241.952 215.388 242.464 214.9C242.976 214.412 243.636 214.168 244.444 214.168C245.268 214.168 245.92 214.396 246.4 214.852C246.888 215.308 247.132 215.936 247.132 216.736C247.132 217.4 246.932 218.048 246.532 218.68C246.14 219.304 245.692 219.856 245.188 220.336C244.684 220.808 244.04 221.36 243.256 221.992H247.384V222.904H241.612V222.124ZM248.646 218.572C248.646 217.196 248.87 216.124 249.318 215.356C249.766 214.58 250.55 214.192 251.67 214.192C252.782 214.192 253.562 214.58 254.01 215.356C254.458 216.124 254.682 217.196 254.682 218.572C254.682 219.972 254.458 221.06 254.01 221.836C253.562 222.612 252.782 223 251.67 223C250.55 223 249.766 222.612 249.318 221.836C248.87 221.06 248.646 219.972 248.646 218.572ZM253.602 218.572C253.602 217.876 253.554 217.288 253.458 216.808C253.37 216.32 253.182 215.928 252.894 215.632C252.614 215.336 252.206 215.188 251.67 215.188C251.126 215.188 250.71 215.336 250.422 215.632C250.142 215.928 249.954 216.32 249.858 216.808C249.77 217.288 249.726 217.876 249.726 218.572C249.726 219.292 249.77 219.896 249.858 220.384C249.954 220.872 250.142 221.264 250.422 221.56C250.71 221.856 251.126 222.004 251.67 222.004C252.206 222.004 252.614 221.856 252.894 221.56C253.182 221.264 253.37 220.872 253.458 220.384C253.554 219.896 253.602 219.292 253.602 218.572ZM256.05 222.124C257.066 221.308 257.862 220.64 258.438 220.12C259.014 219.592 259.498 219.044 259.89 218.476C260.29 217.9 260.49 217.336 260.49 216.784C260.49 216.264 260.362 215.856 260.106 215.56C259.858 215.256 259.454 215.104 258.894 215.104C258.35 215.104 257.926 215.276 257.622 215.62C257.326 215.956 257.166 216.408 257.142 216.976H256.086C256.118 216.08 256.39 215.388 256.902 214.9C257.414 214.412 258.074 214.168 258.882 214.168C259.706 214.168 260.358 214.396 260.838 214.852C261.326 215.308 261.57 215.936 261.57 216.736C261.57 217.4 261.37 218.048 260.97 218.68C260.578 219.304 260.13 219.856 259.626 220.336C259.122 220.808 258.478 221.36 257.694 221.992H261.822V222.904H256.05V222.124ZM262.796 215.32V214.324H265.052V223H263.948V215.32H262.796Z" fill="#5A5A5A"/>
<path d="M280.945 222.124C281.961 221.308 282.757 220.64 283.333 220.12C283.909 219.592 284.393 219.044 284.785 218.476C285.185 217.9 285.385 217.336 285.385 216.784C285.385 216.264 285.257 215.856 285.001 215.56C284.753 215.256 284.349 215.104 283.789 215.104C283.245 215.104 282.821 215.276 282.517 215.62C282.221 215.956 282.061 216.408 282.037 216.976H280.981C281.013 216.08 281.285 215.388 281.797 214.9C282.309 214.412 282.969 214.168 283.777 214.168C284.601 214.168 285.253 214.396 285.733 214.852C286.221 215.308 286.465 215.936 286.465 216.736C286.465 217.4 286.265 218.048 285.865 218.68C285.473 219.304 285.025 219.856 284.521 220.336C284.017 220.808 283.373 221.36 282.589 221.992H286.717V222.904H280.945V222.124ZM287.979 218.572C287.979 217.196 288.203 216.124 288.651 215.356C289.099 214.58 289.883 214.192 291.003 214.192C292.115 214.192 292.895 214.58 293.343 215.356C293.791 216.124 294.015 217.196 294.015 218.572C294.015 219.972 293.791 221.06 293.343 221.836C292.895 222.612 292.115 223 291.003 223C289.883 223 289.099 222.612 288.651 221.836C288.203 221.06 287.979 219.972 287.979 218.572ZM292.935 218.572C292.935 217.876 292.887 217.288 292.791 216.808C292.703 216.32 292.515 215.928 292.227 215.632C291.947 215.336 291.539 215.188 291.003 215.188C290.459 215.188 290.043 215.336 289.755 215.632C289.475 215.928 289.287 216.32 289.191 216.808C289.103 217.288 289.059 217.876 289.059 218.572C289.059 219.292 289.103 219.896 289.191 220.384C289.287 220.872 289.475 221.264 289.755 221.56C290.043 221.856 290.459 222.004 291.003 222.004C291.539 222.004 291.947 221.856 292.227 221.56C292.515 221.264 292.703 220.872 292.791 220.384C292.887 219.896 292.935 219.292 292.935 218.572ZM295.383 222.124C296.399 221.308 297.195 220.64 297.771 220.12C298.347 219.592 298.831 219.044 299.223 218.476C299.623 217.9 299.823 217.336 299.823 216.784C299.823 216.264 299.695 215.856 299.439 215.56C299.191 215.256 298.787 215.104 298.227 215.104C297.683 215.104 297.259 215.276 296.955 215.62C296.659 215.956 296.499 216.408 296.475 216.976H295.419C295.451 216.08 295.723 215.388 296.235 214.9C296.747 214.412 297.407 214.168 298.215 214.168C299.039 214.168 299.691 214.396 300.171 214.852C300.659 215.308 300.903 215.936 300.903 216.736C300.903 217.4 300.703 218.048 300.303 218.68C299.911 219.304 299.463 219.856 298.959 220.336C298.455 220.808 297.811 221.36 297.027 221.992H301.155V222.904H295.383V222.124ZM302.285 222.124C303.301 221.308 304.097 220.64 304.673 220.12C305.249 219.592 305.733 219.044 306.125 218.476C306.525 217.9 306.725 217.336 306.725 216.784C306.725 216.264 306.597 215.856 306.341 215.56C306.093 215.256 305.689 215.104 305.129 215.104C304.585 215.104 304.161 215.276 303.857 215.62C303.561 215.956 303.401 216.408 303.377 216.976H302.321C302.353 216.08 302.625 215.388 303.137 214.9C303.649 214.412 304.309 214.168 305.117 214.168C305.941 214.168 306.593 214.396 307.073 214.852C307.561 215.308 307.805 215.936 307.805 216.736C307.805 217.4 307.605 218.048 307.205 218.68C306.813 219.304 306.365 219.856 305.861 220.336C305.357 220.808 304.713 221.36 303.929 221.992H308.057V222.904H302.285V222.124Z" fill="#5A5A5A"/>
<path d="M323.279 222.124C324.295 221.308 325.091 220.64 325.667 220.12C326.243 219.592 326.727 219.044 327.119 218.476C327.519 217.9 327.719 217.336 327.719 216.784C327.719 216.264 327.591 215.856 327.335 215.56C327.087 215.256 326.683 215.104 326.123 215.104C325.579 215.104 325.155 215.276 324.851 215.62C324.555 215.956 324.395 216.408 324.371 216.976H323.315C323.347 216.08 323.619 215.388 324.131 214.9C324.643 214.412 325.303 214.168 326.111 214.168C326.935 214.168 327.587 214.396 328.067 214.852C328.555 215.308 328.799 215.936 328.799 216.736C328.799 217.4 328.599 218.048 328.199 218.68C327.807 219.304 327.359 219.856 326.855 220.336C326.351 220.808 325.707 221.36 324.923 221.992H329.051V222.904H323.279V222.124ZM330.313 218.572C330.313 217.196 330.537 216.124 330.985 215.356C331.433 214.58 332.217 214.192 333.337 214.192C334.449 214.192 335.229 214.58 335.677 215.356C336.125 216.124 336.349 217.196 336.349 218.572C336.349 219.972 336.125 221.06 335.677 221.836C335.229 222.612 334.449 223 333.337 223C332.217 223 331.433 222.612 330.985 221.836C330.537 221.06 330.313 219.972 330.313 218.572ZM335.269 218.572C335.269 217.876 335.221 217.288 335.125 216.808C335.037 216.32 334.849 215.928 334.561 215.632C334.281 215.336 333.873 215.188 333.337 215.188C332.793 215.188 332.377 215.336 332.089 215.632C331.809 215.928 331.621 216.32 331.525 216.808C331.437 217.288 331.393 217.876 331.393 218.572C331.393 219.292 331.437 219.896 331.525 220.384C331.621 220.872 331.809 221.264 332.089 221.56C332.377 221.856 332.793 222.004 333.337 222.004C333.873 222.004 334.281 221.856 334.561 221.56C334.849 221.264 335.037 220.872 335.125 220.384C335.221 219.896 335.269 219.292 335.269 218.572ZM337.716 222.124C338.732 221.308 339.528 220.64 340.104 220.12C340.68 219.592 341.164 219.044 341.556 218.476C341.956 217.9 342.156 217.336 342.156 216.784C342.156 216.264 342.028 215.856 341.772 215.56C341.524 215.256 341.12 215.104 340.56 215.104C340.016 215.104 339.592 215.276 339.288 215.62C338.992 215.956 338.832 216.408 338.808 216.976H337.752C337.784 216.08 338.056 215.388 338.568 214.9C339.08 214.412 339.74 214.168 340.548 214.168C341.372 214.168 342.024 214.396 342.504 214.852C342.992 215.308 343.236 215.936 343.236 216.736C343.236 217.4 343.036 218.048 342.636 218.68C342.244 219.304 341.796 219.856 341.292 220.336C340.788 220.808 340.144 221.36 339.36 221.992H343.488V222.904H337.716V222.124ZM344.727 216.508C344.783 215.772 345.067 215.196 345.579 214.78C346.091 214.364 346.755 214.156 347.571 214.156C348.115 214.156 348.583 214.256 348.975 214.456C349.375 214.648 349.675 214.912 349.875 215.248C350.083 215.584 350.187 215.964 350.187 216.388C350.187 216.884 350.043 217.312 349.755 217.672C349.475 218.032 349.107 218.264 348.651 218.368V218.428C349.171 218.556 349.583 218.808 349.887 219.184C350.191 219.56 350.343 220.052 350.343 220.66C350.343 221.116 350.239 221.528 350.031 221.896C349.823 222.256 349.511 222.54 349.095 222.748C348.679 222.956 348.179 223.06 347.595 223.06C346.747 223.06 346.051 222.84 345.507 222.4C344.963 221.952 344.659 221.32 344.595 220.504H345.651C345.707 220.984 345.903 221.376 346.239 221.68C346.575 221.984 347.023 222.136 347.583 222.136C348.143 222.136 348.567 221.992 348.855 221.704C349.151 221.408 349.299 221.028 349.299 220.564C349.299 219.964 349.099 219.532 348.699 219.268C348.299 219.004 347.695 218.872 346.887 218.872H346.611V217.96H346.899C347.635 217.952 348.191 217.832 348.567 217.6C348.943 217.36 349.131 216.992 349.131 216.496C349.131 216.072 348.991 215.732 348.711 215.476C348.439 215.22 348.047 215.092 347.535 215.092C347.039 215.092 346.639 215.22 346.335 215.476C346.031 215.732 345.851 216.076 345.795 216.508H344.727Z" fill="#5A5A5A"/>
<path d="M365.612 222.124C366.628 221.308 367.424 220.64 368 220.12C368.576 219.592 369.06 219.044 369.452 218.476C369.852 217.9 370.052 217.336 370.052 216.784C370.052 216.264 369.924 215.856 369.668 215.56C369.42 215.256 369.016 215.104 368.456 215.104C367.912 215.104 367.488 215.276 367.184 215.62C366.888 215.956 366.728 216.408 366.704 216.976H365.648C365.68 216.08 365.952 215.388 366.464 214.9C366.976 214.412 367.636 214.168 368.444 214.168C369.268 214.168 369.92 214.396 370.4 214.852C370.888 215.308 371.132 215.936 371.132 216.736C371.132 217.4 370.932 218.048 370.532 218.68C370.14 219.304 369.692 219.856 369.188 220.336C368.684 220.808 368.04 221.36 367.256 221.992H371.384V222.904H365.612V222.124ZM372.646 218.572C372.646 217.196 372.87 216.124 373.318 215.356C373.766 214.58 374.55 214.192 375.67 214.192C376.782 214.192 377.562 214.58 378.01 215.356C378.458 216.124 378.682 217.196 378.682 218.572C378.682 219.972 378.458 221.06 378.01 221.836C377.562 222.612 376.782 223 375.67 223C374.55 223 373.766 222.612 373.318 221.836C372.87 221.06 372.646 219.972 372.646 218.572ZM377.602 218.572C377.602 217.876 377.554 217.288 377.458 216.808C377.37 216.32 377.182 215.928 376.894 215.632C376.614 215.336 376.206 215.188 375.67 215.188C375.126 215.188 374.71 215.336 374.422 215.632C374.142 215.928 373.954 216.32 373.858 216.808C373.77 217.288 373.726 217.876 373.726 218.572C373.726 219.292 373.77 219.896 373.858 220.384C373.954 220.872 374.142 221.264 374.422 221.56C374.71 221.856 375.126 222.004 375.67 222.004C376.206 222.004 376.614 221.856 376.894 221.56C377.182 221.264 377.37 220.872 377.458 220.384C377.554 219.896 377.602 219.292 377.602 218.572ZM380.05 222.124C381.066 221.308 381.862 220.64 382.438 220.12C383.014 219.592 383.498 219.044 383.89 218.476C384.29 217.9 384.49 217.336 384.49 216.784C384.49 216.264 384.362 215.856 384.106 215.56C383.858 215.256 383.454 215.104 382.894 215.104C382.35 215.104 381.926 215.276 381.622 215.62C381.326 215.956 381.166 216.408 381.142 216.976H380.086C380.118 216.08 380.39 215.388 380.902 214.9C381.414 214.412 382.074 214.168 382.882 214.168C383.706 214.168 384.358 214.396 384.838 214.852C385.326 215.308 385.57 215.936 385.57 216.736C385.57 217.4 385.37 218.048 384.97 218.68C384.578 219.304 384.13 219.856 383.626 220.336C383.122 220.808 382.478 221.36 381.694 221.992H385.822V222.904H380.05V222.124ZM386.82 221.068V220.24L391.032 214.408H392.34V220.12H393.54V221.068H392.34V223H391.26V221.068H386.82ZM391.308 215.548L388.08 220.12H391.308V215.548Z" fill="#5A5A5A"/>
<path d="M3.00051 117.999L75.3924 132.16L126.999 80.5004L193.499 70.9995L227.499 97.4989L306.999 55.5009L393.499 47.0009" stroke="#0000FF" stroke-width="2"/>
<path d="M423.276 5.272H419.064V8.008C419.248 7.752 419.52 7.544 419.88 7.384C420.24 7.216 420.628 7.132 421.044 7.132C421.708 7.132 422.248 7.272 422.664 7.552C423.08 7.824 423.376 8.18 423.552 8.62C423.736 9.052 423.828 9.512 423.828 10C423.828 10.576 423.72 11.092 423.504 11.548C423.288 12.004 422.956 12.364 422.508 12.628C422.068 12.892 421.52 13.024 420.864 13.024C420.024 13.024 419.344 12.808 418.824 12.376C418.304 11.944 417.988 11.368 417.876 10.648H418.944C419.048 11.104 419.268 11.46 419.604 11.716C419.94 11.972 420.364 12.1 420.876 12.1C421.508 12.1 421.984 11.912 422.304 11.536C422.624 11.152 422.784 10.648 422.784 10.024C422.784 9.4 422.624 8.92 422.304 8.584C421.984 8.24 421.512 8.068 420.888 8.068C420.464 8.068 420.092 8.172 419.772 8.38C419.46 8.58 419.232 8.856 419.088 9.208H418.056V4.312H423.276V5.272ZM425.807 13.072C425.599 13.072 425.423 13 425.279 12.856C425.135 12.712 425.063 12.536 425.063 12.328C425.063 12.12 425.135 11.944 425.279 11.8C425.423 11.656 425.599 11.584 425.807 11.584C426.007 11.584 426.175 11.656 426.311 11.8C426.455 11.944 426.527 12.12 426.527 12.328C426.527 12.536 426.455 12.712 426.311 12.856C426.175 13 426.007 13.072 425.807 13.072ZM427.799 8.572C427.799 7.196 428.023 6.124 428.471 5.356C428.919 4.58 429.703 4.192 430.823 4.192C431.935 4.192 432.715 4.58 433.163 5.356C433.611 6.124 433.835 7.196 433.835 8.572C433.835 9.972 433.611 11.06 433.163 11.836C432.715 12.612 431.935 13 430.823 13C429.703 13 428.919 12.612 428.471 11.836C428.023 11.06 427.799 9.972 427.799 8.572ZM432.755 8.572C432.755 7.876 432.707 7.288 432.611 6.808C432.523 6.32 432.335 5.928 432.047 5.632C431.767 5.336 431.359 5.188 430.823 5.188C430.279 5.188 429.863 5.336 429.575 5.632C429.295 5.928 429.107 6.32 429.011 6.808C428.923 7.288 428.879 7.876 428.879 8.572C428.879 9.292 428.923 9.896 429.011 10.384C429.107 10.872 429.295 11.264 429.575 11.56C429.863 11.856 430.279 12.004 430.823 12.004C431.359 12.004 431.767 11.856 432.047 11.56C432.335 11.264 432.523 10.872 432.611 10.384C432.707 9.896 432.755 9.292 432.755 8.572ZM435.334 8.572C435.334 7.196 435.558 6.124 436.006 5.356C436.454 4.58 437.238 4.192 438.358 4.192C439.47 4.192 440.25 4.58 440.698 5.356C441.146 6.124 441.37 7.196 441.37 8.572C441.37 9.972 441.146 11.06 440.698 11.836C440.25 12.612 439.47 13 438.358 13C437.238 13 436.454 12.612 436.006 11.836C435.558 11.06 435.334 9.972 435.334 8.572ZM440.29 8.572C440.29 7.876 440.242 7.288 440.146 6.808C440.058 6.32 439.87 5.928 439.582 5.632C439.302 5.336 438.894 5.188 438.358 5.188C437.814 5.188 437.398 5.336 437.11 5.632C436.83 5.928 436.642 6.32 436.546 6.808C436.458 7.288 436.414 7.876 436.414 8.572C436.414 9.292 436.458 9.896 436.546 10.384C436.642 10.872 436.83 11.264 437.11 11.56C437.398 11.856 437.814 12.004 438.358 12.004C438.894 12.004 439.302 11.856 439.582 11.56C439.87 11.264 440.058 10.872 440.146 10.384C440.242 9.896 440.29 9.292 440.29 8.572ZM442.629 6.28C442.629 5.736 442.793 5.304 443.121 4.984C443.449 4.656 443.869 4.492 444.381 4.492C444.893 4.492 445.313 4.656 445.641 4.984C445.969 5.304 446.133 5.736 446.133 6.28C446.133 6.832 445.969 7.272 445.641 7.6C445.313 7.92 444.893 8.08 444.381 8.08C443.869 8.08 443.449 7.92 443.121 7.6C442.793 7.272 442.629 6.832 442.629 6.28ZM449.637 4.624L444.777 13H443.697L448.557 4.624H449.637ZM444.381 5.164C444.109 5.164 443.893 5.26 443.733 5.452C443.581 5.636 443.505 5.912 443.505 6.28C443.505 6.648 443.581 6.928 443.733 7.12C443.893 7.312 444.109 7.408 444.381 7.408C444.653 7.408 444.869 7.312 445.029 7.12C445.189 6.92 445.269 6.64 445.269 6.28C445.269 5.912 445.189 5.636 445.029 5.452C444.869 5.26 444.653 5.164 444.381 5.164ZM447.225 11.344C447.225 10.792 447.389 10.356 447.717 10.036C448.045 9.708 448.465 9.544 448.977 9.544C449.489 9.544 449.905 9.708 450.225 10.036C450.553 10.356 450.717 10.792 450.717 11.344C450.717 11.888 450.553 12.324 450.225 12.652C449.905 12.98 449.489 13.144 448.977 13.144C448.465 13.144 448.045 12.984 447.717 12.664C447.389 12.336 447.225 11.896 447.225 11.344ZM448.965 10.228C448.693 10.228 448.477 10.324 448.317 10.516C448.157 10.7 448.077 10.976 448.077 11.344C448.077 11.704 448.157 11.98 448.317 12.172C448.477 12.356 448.693 12.448 448.965 12.448C449.237 12.448 449.453 12.356 449.613 12.172C449.773 11.98 449.853 11.704 449.853 11.344C449.853 10.976 449.773 10.7 449.613 10.516C449.453 10.324 449.237 10.228 448.965 10.228Z" fill="#5A5A5A"/>
<path d="M417.48 58.068V57.24L421.692 51.408H423V57.12H424.2V58.068H423V60H421.92V58.068H417.48ZM421.968 52.548L418.74 57.12H421.968V52.548ZM425.819 60.072C425.611 60.072 425.435 60 425.291 59.856C425.147 59.712 425.075 59.536 425.075 59.328C425.075 59.12 425.147 58.944 425.291 58.8C425.435 58.656 425.611 58.584 425.819 58.584C426.019 58.584 426.187 58.656 426.323 58.8C426.467 58.944 426.539 59.12 426.539 59.328C426.539 59.536 426.467 59.712 426.323 59.856C426.187 60 426.019 60.072 425.819 60.072ZM433.342 52.272H429.13V55.008C429.314 54.752 429.586 54.544 429.946 54.384C430.306 54.216 430.694 54.132 431.11 54.132C431.774 54.132 432.314 54.272 432.73 54.552C433.146 54.824 433.442 55.18 433.618 55.62C433.802 56.052 433.894 56.512 433.894 57C433.894 57.576 433.786 58.092 433.57 58.548C433.354 59.004 433.022 59.364 432.574 59.628C432.134 59.892 431.586 60.024 430.93 60.024C430.09 60.024 429.41 59.808 428.89 59.376C428.37 58.944 428.054 58.368 427.942 57.648H429.01C429.114 58.104 429.334 58.46 429.67 58.716C430.006 58.972 430.43 59.1 430.942 59.1C431.574 59.1 432.05 58.912 432.37 58.536C432.69 58.152 432.85 57.648 432.85 57.024C432.85 56.4 432.69 55.92 432.37 55.584C432.05 55.24 431.578 55.068 430.954 55.068C430.53 55.068 430.158 55.172 429.838 55.38C429.526 55.58 429.298 55.856 429.154 56.208H428.122V51.312H433.342V52.272ZM435.346 55.572C435.346 54.196 435.57 53.124 436.018 52.356C436.466 51.58 437.25 51.192 438.37 51.192C439.482 51.192 440.262 51.58 440.71 52.356C441.158 53.124 441.382 54.196 441.382 55.572C441.382 56.972 441.158 58.06 440.71 58.836C440.262 59.612 439.482 60 438.37 60C437.25 60 436.466 59.612 436.018 58.836C435.57 58.06 435.346 56.972 435.346 55.572ZM440.302 55.572C440.302 54.876 440.254 54.288 440.158 53.808C440.07 53.32 439.882 52.928 439.594 52.632C439.314 52.336 438.906 52.188 438.37 52.188C437.826 52.188 437.41 52.336 437.122 52.632C436.842 52.928 436.654 53.32 436.558 53.808C436.47 54.288 436.426 54.876 436.426 55.572C436.426 56.292 436.47 56.896 436.558 57.384C436.654 57.872 436.842 58.264 437.122 58.56C437.41 58.856 437.826 59.004 438.37 59.004C438.906 59.004 439.314 58.856 439.594 58.56C439.882 58.264 440.07 57.872 440.158 57.384C440.254 56.896 440.302 56.292 440.302 55.572ZM442.641 53.28C442.641 52.736 442.805 52.304 443.133 51.984C443.461 51.656 443.881 51.492 444.393 51.492C444.905 51.492 445.325 51.656 445.653 51.984C445.981 52.304 446.145 52.736 446.145 53.28C446.145 53.832 445.981 54.272 445.653 54.6C445.325 54.92 444.905 55.08 444.393 55.08C443.881 55.08 443.461 54.92 443.133 54.6C442.805 54.272 442.641 53.832 442.641 53.28ZM449.649 51.624L444.789 60H443.709L448.569 51.624H449.649ZM444.393 52.164C444.121 52.164 443.905 52.26 443.745 52.452C443.593 52.636 443.517 52.912 443.517 53.28C443.517 53.648 443.593 53.928 443.745 54.12C443.905 54.312 444.121 54.408 444.393 54.408C444.665 54.408 444.881 54.312 445.041 54.12C445.201 53.92 445.281 53.64 445.281 53.28C445.281 52.912 445.201 52.636 445.041 52.452C444.881 52.26 444.665 52.164 444.393 52.164ZM447.237 58.344C447.237 57.792 447.401 57.356 447.729 57.036C448.057 56.708 448.477 56.544 448.989 56.544C449.501 56.544 449.917 56.708 450.237 57.036C450.565 57.356 450.729 57.792 450.729 58.344C450.729 58.888 450.565 59.324 450.237 59.652C449.917 59.98 449.501 60.144 448.989 60.144C448.477 60.144 448.057 59.984 447.729 59.664C447.401 59.336 447.237 58.896 447.237 58.344ZM448.977 57.228C448.705 57.228 448.489 57.324 448.329 57.516C448.169 57.7 448.089 57.976 448.089 58.344C448.089 58.704 448.169 58.98 448.329 59.172C448.489 59.356 448.705 59.448 448.977 59.448C449.249 59.448 449.465 59.356 449.625 59.172C449.785 58.98 449.865 58.704 449.865 58.344C449.865 57.976 449.785 57.7 449.625 57.516C449.465 57.324 449.249 57.228 448.977 57.228Z" fill="#5A5A5A"/>
<path d="M417.48 105.068V104.24L421.692 98.408H423V104.12H424.2V105.068H423V107H421.92V105.068H417.48ZM421.968 99.548L418.74 104.12H421.968V99.548ZM425.819 107.072C425.611 107.072 425.435 107 425.291 106.856C425.147 106.712 425.075 106.536 425.075 106.328C425.075 106.12 425.147 105.944 425.291 105.8C425.435 105.656 425.611 105.584 425.819 105.584C426.019 105.584 426.187 105.656 426.323 105.8C426.467 105.944 426.539 106.12 426.539 106.328C426.539 106.536 426.467 106.712 426.323 106.856C426.187 107 426.019 107.072 425.819 107.072ZM427.81 102.572C427.81 101.196 428.034 100.124 428.482 99.356C428.93 98.58 429.714 98.192 430.834 98.192C431.946 98.192 432.726 98.58 433.174 99.356C433.622 100.124 433.846 101.196 433.846 102.572C433.846 103.972 433.622 105.06 433.174 105.836C432.726 106.612 431.946 107 430.834 107C429.714 107 428.93 106.612 428.482 105.836C428.034 105.06 427.81 103.972 427.81 102.572ZM432.766 102.572C432.766 101.876 432.718 101.288 432.622 100.808C432.534 100.32 432.346 99.928 432.058 99.632C431.778 99.336 431.37 99.188 430.834 99.188C430.29 99.188 429.874 99.336 429.586 99.632C429.306 99.928 429.118 100.32 429.022 100.808C428.934 101.288 428.89 101.876 428.89 102.572C428.89 103.292 428.934 103.896 429.022 104.384C429.118 104.872 429.306 105.264 429.586 105.56C429.874 105.856 430.29 106.004 430.834 106.004C431.37 106.004 431.778 105.856 432.058 105.56C432.346 105.264 432.534 104.872 432.622 104.384C432.718 103.896 432.766 103.292 432.766 102.572ZM435.346 102.572C435.346 101.196 435.57 100.124 436.018 99.356C436.466 98.58 437.25 98.192 438.37 98.192C439.482 98.192 440.262 98.58 440.71 99.356C441.158 100.124 441.382 101.196 441.382 102.572C441.382 103.972 441.158 105.06 440.71 105.836C440.262 106.612 439.482 107 438.37 107C437.25 107 436.466 106.612 436.018 105.836C435.57 105.06 435.346 103.972 435.346 102.572ZM440.302 102.572C440.302 101.876 440.254 101.288 440.158 100.808C440.07 100.32 439.882 99.928 439.594 99.632C439.314 99.336 438.906 99.188 438.37 99.188C437.826 99.188 437.41 99.336 437.122 99.632C436.842 99.928 436.654 100.32 436.558 100.808C436.47 101.288 436.426 101.876 436.426 102.572C436.426 103.292 436.47 103.896 436.558 104.384C436.654 104.872 436.842 105.264 437.122 105.56C437.41 105.856 437.826 106.004 438.37 106.004C438.906 106.004 439.314 105.856 439.594 105.56C439.882 105.264 440.07 104.872 440.158 104.384C440.254 103.896 440.302 103.292 440.302 102.572ZM442.641 100.28C442.641 99.736 442.805 99.304 443.133 98.984C443.461 98.656 443.881 98.492 444.393 98.492C444.905 98.492 445.325 98.656 445.653 98.984C445.981 99.304 446.145 99.736 446.145 100.28C446.145 100.832 445.981 101.272 445.653 101.6C445.325 101.92 444.905 102.08 444.393 102.08C443.881 102.08 443.461 101.92 443.133 101.6C442.805 101.272 442.641 100.832 442.641 100.28ZM449.649 98.624L444.789 107H443.709L448.569 98.624H449.649ZM444.393 99.164C444.121 99.164 443.905 99.26 443.745 99.452C443.593 99.636 443.517 99.912 443.517 100.28C443.517 100.648 443.593 100.928 443.745 101.12C443.905 101.312 444.121 101.408 444.393 101.408C444.665 101.408 444.881 101.312 445.041 101.12C445.201 100.92 445.281 100.64 445.281 100.28C445.281 99.912 445.201 99.636 445.041 99.452C444.881 99.26 444.665 99.164 444.393 99.164ZM447.237 105.344C447.237 104.792 447.401 104.356 447.729 104.036C448.057 103.708 448.477 103.544 448.989 103.544C449.501 103.544 449.917 103.708 450.237 104.036C450.565 104.356 450.729 104.792 450.729 105.344C450.729 105.888 450.565 106.324 450.237 106.652C449.917 106.98 449.501 107.144 448.989 107.144C448.477 107.144 448.057 106.984 447.729 106.664C447.401 106.336 447.237 105.896 447.237 105.344ZM448.977 104.228C448.705 104.228 448.489 104.324 448.329 104.516C448.169 104.7 448.089 104.976 448.089 105.344C448.089 105.704 448.169 105.98 448.329 106.172C448.489 106.356 448.705 106.448 448.977 106.448C449.249 106.448 449.465 106.356 449.625 106.172C449.785 105.98 449.865 105.704 449.865 105.344C449.865 104.976 449.785 104.7 449.625 104.516C449.465 104.324 449.249 104.228 448.977 104.228Z" fill="#5A5A5A"/>
<path d="M417.72 147.508C417.776 146.772 418.06 146.196 418.572 145.78C419.084 145.364 419.748 145.156 420.564 145.156C421.108 145.156 421.576 145.256 421.968 145.456C422.368 145.648 422.668 145.912 422.868 146.248C423.076 146.584 423.18 146.964 423.18 147.388C423.18 147.884 423.036 148.312 422.748 148.672C422.468 149.032 422.1 149.264 421.644 149.368V149.428C422.164 149.556 422.576 149.808 422.88 150.184C423.184 150.56 423.336 151.052 423.336 151.66C423.336 152.116 423.232 152.528 423.024 152.896C422.816 153.256 422.504 153.54 422.088 153.748C421.672 153.956 421.172 154.06 420.588 154.06C419.74 154.06 419.044 153.84 418.5 153.4C417.956 152.952 417.652 152.32 417.588 151.504H418.644C418.7 151.984 418.896 152.376 419.232 152.68C419.568 152.984 420.016 153.136 420.576 153.136C421.136 153.136 421.56 152.992 421.848 152.704C422.144 152.408 422.292 152.028 422.292 151.564C422.292 150.964 422.092 150.532 421.692 150.268C421.292 150.004 420.688 149.872 419.88 149.872H419.604V148.96H419.892C420.628 148.952 421.184 148.832 421.56 148.6C421.936 148.36 422.124 147.992 422.124 147.496C422.124 147.072 421.984 146.732 421.704 146.476C421.432 146.22 421.04 146.092 420.528 146.092C420.032 146.092 419.632 146.22 419.328 146.476C419.024 146.732 418.844 147.076 418.788 147.508H417.72ZM425.338 154.072C425.13 154.072 424.954 154 424.81 153.856C424.666 153.712 424.594 153.536 424.594 153.328C424.594 153.12 424.666 152.944 424.81 152.8C424.954 152.656 425.13 152.584 425.338 152.584C425.538 152.584 425.706 152.656 425.842 152.8C425.986 152.944 426.058 153.12 426.058 153.328C426.058 153.536 425.986 153.712 425.842 153.856C425.706 154 425.538 154.072 425.338 154.072ZM432.862 146.272H428.65V149.008C428.834 148.752 429.106 148.544 429.466 148.384C429.826 148.216 430.214 148.132 430.63 148.132C431.294 148.132 431.834 148.272 432.25 148.552C432.666 148.824 432.962 149.18 433.138 149.62C433.322 150.052 433.414 150.512 433.414 151C433.414 151.576 433.306 152.092 433.09 152.548C432.874 153.004 432.542 153.364 432.094 153.628C431.654 153.892 431.106 154.024 430.45 154.024C429.61 154.024 428.93 153.808 428.41 153.376C427.89 152.944 427.574 152.368 427.462 151.648H428.53C428.634 152.104 428.854 152.46 429.19 152.716C429.526 152.972 429.95 153.1 430.462 153.1C431.094 153.1 431.57 152.912 431.89 152.536C432.21 152.152 432.37 151.648 432.37 151.024C432.37 150.4 432.21 149.92 431.89 149.584C431.57 149.24 431.098 149.068 430.474 149.068C430.05 149.068 429.678 149.172 429.358 149.38C429.046 149.58 428.818 149.856 428.674 150.208H427.642V145.312H432.862V146.272ZM434.865 149.572C434.865 148.196 435.089 147.124 435.537 146.356C435.985 145.58 436.769 145.192 437.889 145.192C439.001 145.192 439.781 145.58 440.229 146.356C440.677 147.124 440.901 148.196 440.901 149.572C440.901 150.972 440.677 152.06 440.229 152.836C439.781 153.612 439.001 154 437.889 154C436.769 154 435.985 153.612 435.537 152.836C435.089 152.06 434.865 150.972 434.865 149.572ZM439.821 149.572C439.821 148.876 439.773 148.288 439.677 147.808C439.589 147.32 439.401 146.928 439.113 146.632C438.833 146.336 438.425 146.188 437.889 146.188C437.345 146.188 436.929 146.336 436.641 146.632C436.361 146.928 436.173 147.32 436.077 147.808C435.989 148.288 435.945 148.876 435.945 149.572C435.945 150.292 435.989 150.896 436.077 151.384C436.173 151.872 436.361 152.264 436.641 152.56C436.929 152.856 437.345 153.004 437.889 153.004C438.425 153.004 438.833 152.856 439.113 152.56C439.401 152.264 439.589 151.872 439.677 151.384C439.773 150.896 439.821 150.292 439.821 149.572ZM442.16 147.28C442.16 146.736 442.324 146.304 442.652 145.984C442.98 145.656 443.4 145.492 443.912 145.492C444.424 145.492 444.844 145.656 445.172 145.984C445.5 146.304 445.664 146.736 445.664 147.28C445.664 147.832 445.5 148.272 445.172 148.6C444.844 148.92 444.424 149.08 443.912 149.08C443.4 149.08 442.98 148.92 442.652 148.6C442.324 148.272 442.16 147.832 442.16 147.28ZM449.168 145.624L444.308 154H443.228L448.088 145.624H449.168ZM443.912 146.164C443.64 146.164 443.424 146.26 443.264 146.452C443.112 146.636 443.036 146.912 443.036 147.28C443.036 147.648 443.112 147.928 443.264 148.12C443.424 148.312 443.64 148.408 443.912 148.408C444.184 148.408 444.4 148.312 444.56 148.12C444.72 147.92 444.8 147.64 444.8 147.28C444.8 146.912 444.72 146.636 444.56 146.452C444.4 146.26 444.184 146.164 443.912 146.164ZM446.756 152.344C446.756 151.792 446.92 151.356 447.248 151.036C447.576 150.708 447.996 150.544 448.508 150.544C449.02 150.544 449.436 150.708 449.756 151.036C450.084 151.356 450.248 151.792 450.248 152.344C450.248 152.888 450.084 153.324 449.756 153.652C449.436 153.98 449.02 154.144 448.508 154.144C447.996 154.144 447.576 153.984 447.248 153.664C446.92 153.336 446.756 152.896 446.756 152.344ZM448.496 151.228C448.224 151.228 448.008 151.324 447.848 151.516C447.688 151.7 447.608 151.976 447.608 152.344C447.608 152.704 447.688 152.98 447.848 153.172C448.008 153.356 448.224 153.448 448.496 153.448C448.768 153.448 448.984 153.356 449.144 153.172C449.304 152.98 449.384 152.704 449.384 152.344C449.384 151.976 449.304 151.7 449.144 151.516C448.984 151.324 448.768 151.228 448.496 151.228Z" fill="#5A5A5A"/>
<path d="M417.72 194.508C417.776 193.772 418.06 193.196 418.572 192.78C419.084 192.364 419.748 192.156 420.564 192.156C421.108 192.156 421.576 192.256 421.968 192.456C422.368 192.648 422.668 192.912 422.868 193.248C423.076 193.584 423.18 193.964 423.18 194.388C423.18 194.884 423.036 195.312 422.748 195.672C422.468 196.032 422.1 196.264 421.644 196.368V196.428C422.164 196.556 422.576 196.808 422.88 197.184C423.184 197.56 423.336 198.052 423.336 198.66C423.336 199.116 423.232 199.528 423.024 199.896C422.816 200.256 422.504 200.54 422.088 200.748C421.672 200.956 421.172 201.06 420.588 201.06C419.74 201.06 419.044 200.84 418.5 200.4C417.956 199.952 417.652 199.32 417.588 198.504H418.644C418.7 198.984 418.896 199.376 419.232 199.68C419.568 199.984 420.016 200.136 420.576 200.136C421.136 200.136 421.56 199.992 421.848 199.704C422.144 199.408 422.292 199.028 422.292 198.564C422.292 197.964 422.092 197.532 421.692 197.268C421.292 197.004 420.688 196.872 419.88 196.872H419.604V195.96H419.892C420.628 195.952 421.184 195.832 421.56 195.6C421.936 195.36 422.124 194.992 422.124 194.496C422.124 194.072 421.984 193.732 421.704 193.476C421.432 193.22 421.04 193.092 420.528 193.092C420.032 193.092 419.632 193.22 419.328 193.476C419.024 193.732 418.844 194.076 418.788 194.508H417.72ZM425.338 201.072C425.13 201.072 424.954 201 424.81 200.856C424.666 200.712 424.594 200.536 424.594 200.328C424.594 200.12 424.666 199.944 424.81 199.8C424.954 199.656 425.13 199.584 425.338 199.584C425.538 199.584 425.706 199.656 425.842 199.8C425.986 199.944 426.058 200.12 426.058 200.328C426.058 200.536 425.986 200.712 425.842 200.856C425.706 201 425.538 201.072 425.338 201.072ZM427.33 196.572C427.33 195.196 427.554 194.124 428.002 193.356C428.45 192.58 429.234 192.192 430.354 192.192C431.466 192.192 432.246 192.58 432.694 193.356C433.142 194.124 433.366 195.196 433.366 196.572C433.366 197.972 433.142 199.06 432.694 199.836C432.246 200.612 431.466 201 430.354 201C429.234 201 428.45 200.612 428.002 199.836C427.554 199.06 427.33 197.972 427.33 196.572ZM432.286 196.572C432.286 195.876 432.238 195.288 432.142 194.808C432.054 194.32 431.866 193.928 431.578 193.632C431.298 193.336 430.89 193.188 430.354 193.188C429.81 193.188 429.394 193.336 429.106 193.632C428.826 193.928 428.638 194.32 428.542 194.808C428.454 195.288 428.41 195.876 428.41 196.572C428.41 197.292 428.454 197.896 428.542 198.384C428.638 198.872 428.826 199.264 429.106 199.56C429.394 199.856 429.81 200.004 430.354 200.004C430.89 200.004 431.298 199.856 431.578 199.56C431.866 199.264 432.054 198.872 432.142 198.384C432.238 197.896 432.286 197.292 432.286 196.572ZM434.865 196.572C434.865 195.196 435.089 194.124 435.537 193.356C435.985 192.58 436.769 192.192 437.889 192.192C439.001 192.192 439.781 192.58 440.229 193.356C440.677 194.124 440.901 195.196 440.901 196.572C440.901 197.972 440.677 199.06 440.229 199.836C439.781 200.612 439.001 201 437.889 201C436.769 201 435.985 200.612 435.537 199.836C435.089 199.06 434.865 197.972 434.865 196.572ZM439.821 196.572C439.821 195.876 439.773 195.288 439.677 194.808C439.589 194.32 439.401 193.928 439.113 193.632C438.833 193.336 438.425 193.188 437.889 193.188C437.345 193.188 436.929 193.336 436.641 193.632C436.361 193.928 436.173 194.32 436.077 194.808C435.989 195.288 435.945 195.876 435.945 196.572C435.945 197.292 435.989 197.896 436.077 198.384C436.173 198.872 436.361 199.264 436.641 199.56C436.929 199.856 437.345 200.004 437.889 200.004C438.425 200.004 438.833 199.856 439.113 199.56C439.401 199.264 439.589 198.872 439.677 198.384C439.773 197.896 439.821 197.292 439.821 196.572ZM442.16 194.28C442.16 193.736 442.324 193.304 442.652 192.984C442.98 192.656 443.4 192.492 443.912 192.492C444.424 192.492 444.844 192.656 445.172 192.984C445.5 193.304 445.664 193.736 445.664 194.28C445.664 194.832 445.5 195.272 445.172 195.6C444.844 195.92 444.424 196.08 443.912 196.08C443.4 196.08 442.98 195.92 442.652 195.6C442.324 195.272 442.16 194.832 442.16 194.28ZM449.168 192.624L444.308 201H443.228L448.088 192.624H449.168ZM443.912 193.164C443.64 193.164 443.424 193.26 443.264 193.452C443.112 193.636 443.036 193.912 443.036 194.28C443.036 194.648 443.112 194.928 443.264 195.12C443.424 195.312 443.64 195.408 443.912 195.408C444.184 195.408 444.4 195.312 444.56 195.12C444.72 194.92 444.8 194.64 444.8 194.28C444.8 193.912 444.72 193.636 444.56 193.452C444.4 193.26 444.184 193.164 443.912 193.164ZM446.756 199.344C446.756 198.792 446.92 198.356 447.248 198.036C447.576 197.708 447.996 197.544 448.508 197.544C449.02 197.544 449.436 197.708 449.756 198.036C450.084 198.356 450.248 198.792 450.248 199.344C450.248 199.888 450.084 200.324 449.756 200.652C449.436 200.98 449.02 201.144 448.508 201.144C447.996 201.144 447.576 200.984 447.248 200.664C446.92 200.336 446.756 199.896 446.756 199.344ZM448.496 198.228C448.224 198.228 448.008 198.324 447.848 198.516C447.688 198.7 447.608 198.976 447.608 199.344C447.608 199.704 447.688 199.98 447.848 200.172C448.008 200.356 448.224 200.448 448.496 200.448C448.768 200.448 448.984 200.356 449.144 200.172C449.304 199.98 449.384 199.704 449.384 199.344C449.384 198.976 449.304 198.7 449.144 198.516C448.984 198.324 448.768 198.228 448.496 198.228Z" fill="#5A5A5A"/>
<path d="M3 118.69L73 132.629L127 80.8534L193 71.5603L226.739 98.3333L307.111 55.3243L394 47V201H3V118.69Z" fill="url(#paint0_linear_169_4732)"/>
<g filter="url(#filter0_b_169_4732)">
<rect x="164" y="56" width="124" height="55" rx="27.5" fill="white" fill-opacity="0.3"/>
<path d="M182.868 75.14H179.22L178.548 77H177.396L180.42 68.684H181.68L184.692 77H183.54L182.868 75.14ZM182.556 74.252L181.044 70.028L179.532 74.252H182.556ZM191.842 70.424V77H190.75V76.028C190.542 76.364 190.25 76.628 189.874 76.82C189.506 77.004 189.098 77.096 188.65 77.096C188.138 77.096 187.678 76.992 187.27 76.784C186.862 76.568 186.538 76.248 186.298 75.824C186.066 75.4 185.95 74.884 185.95 74.276V70.424H187.03V74.132C187.03 74.78 187.194 75.28 187.522 75.632C187.85 75.976 188.298 76.148 188.866 76.148C189.45 76.148 189.91 75.968 190.246 75.608C190.582 75.248 190.75 74.724 190.75 74.036V70.424H191.842ZM196.398 70.316C196.966 70.316 197.462 70.44 197.886 70.688C198.318 70.936 198.638 71.248 198.846 71.624V70.424H199.95V77.144C199.95 77.744 199.822 78.276 199.566 78.74C199.31 79.212 198.942 79.58 198.462 79.844C197.99 80.108 197.438 80.24 196.806 80.24C195.942 80.24 195.222 80.036 194.646 79.628C194.07 79.22 193.73 78.664 193.626 77.96H194.706C194.826 78.36 195.074 78.68 195.45 78.92C195.826 79.168 196.278 79.292 196.806 79.292C197.406 79.292 197.894 79.104 198.27 78.728C198.654 78.352 198.846 77.824 198.846 77.144V75.764C198.63 76.148 198.31 76.468 197.886 76.724C197.462 76.98 196.966 77.108 196.398 77.108C195.814 77.108 195.282 76.964 194.802 76.676C194.33 76.388 193.958 75.984 193.686 75.464C193.414 74.944 193.278 74.352 193.278 73.688C193.278 73.016 193.414 72.428 193.686 71.924C193.958 71.412 194.33 71.016 194.802 70.736C195.282 70.456 195.814 70.316 196.398 70.316ZM198.846 73.7C198.846 73.204 198.746 72.772 198.546 72.404C198.346 72.036 198.074 71.756 197.73 71.564C197.394 71.364 197.022 71.264 196.614 71.264C196.206 71.264 195.834 71.36 195.498 71.552C195.162 71.744 194.894 72.024 194.694 72.392C194.494 72.76 194.394 73.192 194.394 73.688C194.394 74.192 194.494 74.632 194.694 75.008C194.894 75.376 195.162 75.66 195.498 75.86C195.834 76.052 196.206 76.148 196.614 76.148C197.022 76.148 197.394 76.052 197.73 75.86C198.074 75.66 198.346 75.376 198.546 75.008C198.746 74.632 198.846 74.196 198.846 73.7ZM207.627 70.424V77H206.535V76.028C206.327 76.364 206.035 76.628 205.659 76.82C205.291 77.004 204.883 77.096 204.435 77.096C203.923 77.096 203.463 76.992 203.055 76.784C202.647 76.568 202.323 76.248 202.083 75.824C201.851 75.4 201.735 74.884 201.735 74.276V70.424H202.815V74.132C202.815 74.78 202.979 75.28 203.307 75.632C203.635 75.976 204.083 76.148 204.651 76.148C205.235 76.148 205.695 75.968 206.031 75.608C206.367 75.248 206.535 74.724 206.535 74.036V70.424H207.627ZM211.799 77.108C211.295 77.108 210.843 77.024 210.443 76.856C210.043 76.68 209.727 76.44 209.495 76.136C209.263 75.824 209.135 75.468 209.111 75.068H210.239C210.271 75.396 210.423 75.664 210.695 75.872C210.975 76.08 211.339 76.184 211.787 76.184C212.203 76.184 212.531 76.092 212.771 75.908C213.011 75.724 213.131 75.492 213.131 75.212C213.131 74.924 213.003 74.712 212.747 74.576C212.491 74.432 212.095 74.292 211.559 74.156C211.071 74.028 210.671 73.9 210.359 73.772C210.055 73.636 209.791 73.44 209.567 73.184C209.351 72.92 209.243 72.576 209.243 72.152C209.243 71.816 209.343 71.508 209.543 71.228C209.743 70.948 210.027 70.728 210.395 70.568C210.763 70.4 211.183 70.316 211.655 70.316C212.383 70.316 212.971 70.5 213.419 70.868C213.867 71.236 214.107 71.74 214.139 72.38H213.047C213.023 72.036 212.883 71.76 212.627 71.552C212.379 71.344 212.043 71.24 211.619 71.24C211.227 71.24 210.915 71.324 210.683 71.492C210.451 71.66 210.335 71.88 210.335 72.152C210.335 72.368 210.403 72.548 210.539 72.692C210.683 72.828 210.859 72.94 211.067 73.028C211.283 73.108 211.579 73.2 211.955 73.304C212.427 73.432 212.811 73.56 213.107 73.688C213.403 73.808 213.655 73.992 213.863 74.24C214.079 74.488 214.191 74.812 214.199 75.212C214.199 75.572 214.099 75.896 213.899 76.184C213.699 76.472 213.415 76.7 213.047 76.868C212.687 77.028 212.271 77.108 211.799 77.108ZM217.072 71.324V75.2C217.072 75.52 217.14 75.748 217.276 75.884C217.412 76.012 217.648 76.076 217.984 76.076H218.788V77H217.804C217.196 77 216.74 76.86 216.436 76.58C216.132 76.3 215.98 75.84 215.98 75.2V71.324H215.128V70.424H215.98V68.768H217.072V70.424H218.788V71.324H217.072ZM222.843 69.32V68.324H225.099V77H223.995V69.32H222.843ZM226.842 76.124C227.858 75.308 228.654 74.64 229.23 74.12C229.806 73.592 230.29 73.044 230.682 72.476C231.082 71.9 231.282 71.336 231.282 70.784C231.282 70.264 231.154 69.856 230.898 69.56C230.65 69.256 230.246 69.104 229.686 69.104C229.142 69.104 228.718 69.276 228.414 69.62C228.118 69.956 227.958 70.408 227.934 70.976H226.878C226.91 70.08 227.182 69.388 227.694 68.9C228.206 68.412 228.866 68.168 229.674 68.168C230.498 68.168 231.15 68.396 231.63 68.852C232.118 69.308 232.362 69.936 232.362 70.736C232.362 71.4 232.162 72.048 231.762 72.68C231.37 73.304 230.922 73.856 230.418 74.336C229.914 74.808 229.27 75.36 228.486 75.992H232.614V76.904H226.842V76.124ZM235.389 71.324V75.2C235.389 75.52 235.457 75.748 235.593 75.884C235.729 76.012 235.965 76.076 236.301 76.076H237.105V77H236.121C235.513 77 235.057 76.86 234.753 76.58C234.449 76.3 234.297 75.84 234.297 75.2V71.324H233.445V70.424H234.297V68.768H235.389V70.424H237.105V71.324H235.389ZM241.692 70.304C242.188 70.304 242.636 70.412 243.036 70.628C243.436 70.836 243.748 71.152 243.972 71.576C244.204 72 244.32 72.516 244.32 73.124V77H243.24V73.28C243.24 72.624 243.076 72.124 242.748 71.78C242.42 71.428 241.972 71.252 241.404 71.252C240.828 71.252 240.368 71.432 240.024 71.792C239.688 72.152 239.52 72.676 239.52 73.364V77H238.428V68.12H239.52V71.36C239.736 71.024 240.032 70.764 240.408 70.58C240.792 70.396 241.22 70.304 241.692 70.304ZM245.792 76.124C246.808 75.308 247.604 74.64 248.18 74.12C248.756 73.592 249.24 73.044 249.632 72.476C250.032 71.9 250.232 71.336 250.232 70.784C250.232 70.264 250.104 69.856 249.848 69.56C249.6 69.256 249.196 69.104 248.636 69.104C248.092 69.104 247.668 69.276 247.364 69.62C247.068 69.956 246.908 70.408 246.884 70.976H245.828C245.86 70.08 246.132 69.388 246.644 68.9C247.156 68.412 247.816 68.168 248.624 68.168C249.448 68.168 250.1 68.396 250.58 68.852C251.068 69.308 251.312 69.936 251.312 70.736C251.312 71.4 251.112 72.048 250.712 72.68C250.32 73.304 249.872 73.856 249.368 74.336C248.864 74.808 248.22 75.36 247.436 75.992H251.564V76.904H245.792V76.124ZM252.826 72.572C252.826 71.196 253.05 70.124 253.498 69.356C253.946 68.58 254.73 68.192 255.85 68.192C256.962 68.192 257.742 68.58 258.19 69.356C258.638 70.124 258.862 71.196 258.862 72.572C258.862 73.972 258.638 75.06 258.19 75.836C257.742 76.612 256.962 77 255.85 77C254.73 77 253.946 76.612 253.498 75.836C253.05 75.06 252.826 73.972 252.826 72.572ZM257.782 72.572C257.782 71.876 257.734 71.288 257.638 70.808C257.55 70.32 257.362 69.928 257.074 69.632C256.794 69.336 256.386 69.188 255.85 69.188C255.306 69.188 254.89 69.336 254.602 69.632C254.322 69.928 254.134 70.32 254.038 70.808C253.95 71.288 253.906 71.876 253.906 72.572C253.906 73.292 253.95 73.896 254.038 74.384C254.134 74.872 254.322 75.264 254.602 75.56C254.89 75.856 255.306 76.004 255.85 76.004C256.386 76.004 256.794 75.856 257.074 75.56C257.362 75.264 257.55 74.872 257.638 74.384C257.734 73.896 257.782 73.292 257.782 72.572ZM260.229 76.124C261.245 75.308 262.041 74.64 262.617 74.12C263.193 73.592 263.677 73.044 264.069 72.476C264.469 71.9 264.669 71.336 264.669 70.784C264.669 70.264 264.541 69.856 264.285 69.56C264.037 69.256 263.633 69.104 263.073 69.104C262.529 69.104 262.105 69.276 261.801 69.62C261.505 69.956 261.345 70.408 261.321 70.976H260.265C260.297 70.08 260.569 69.388 261.081 68.9C261.593 68.412 262.253 68.168 263.061 68.168C263.885 68.168 264.537 68.396 265.017 68.852C265.505 69.308 265.749 69.936 265.749 70.736C265.749 71.4 265.549 72.048 265.149 72.68C264.757 73.304 264.309 73.856 263.805 74.336C263.301 74.808 262.657 75.36 261.873 75.992H266.001V76.904H260.229V76.124ZM267 75.068V74.24L271.212 68.408H272.52V74.12H273.72V75.068H272.52V77H271.44V75.068H267ZM271.488 69.548L268.26 74.12H271.488V69.548Z" fill="#5A5A5A"/>
<path d="M205.658 95.012V93.472L210.236 86.92H212.518V93.304H213.75V95.012H212.518V97H210.558V95.012H205.658ZM210.684 89.02L207.814 93.304H210.684V89.02ZM216.09 97.098C215.735 97.098 215.441 96.9907 215.208 96.776C214.984 96.552 214.872 96.2767 214.872 95.95C214.872 95.6233 214.984 95.3527 215.208 95.138C215.441 94.914 215.735 94.802 216.09 94.802C216.435 94.802 216.72 94.914 216.944 95.138C217.168 95.3527 217.28 95.6233 217.28 95.95C217.28 96.2767 217.168 96.552 216.944 96.776C216.72 96.9907 216.435 97.098 216.09 97.098ZM218.663 89.482C218.709 88.5487 219.036 87.83 219.643 87.326C220.259 86.8127 221.066 86.556 222.065 86.556C222.746 86.556 223.329 86.6773 223.815 86.92C224.3 87.1533 224.664 87.4753 224.907 87.886C225.159 88.2873 225.285 88.7447 225.285 89.258C225.285 89.846 225.131 90.3453 224.823 90.756C224.524 91.1573 224.165 91.428 223.745 91.568V91.624C224.286 91.792 224.706 92.0907 225.005 92.52C225.313 92.9493 225.467 93.5 225.467 94.172C225.467 94.732 225.336 95.2313 225.075 95.67C224.823 96.1087 224.445 96.454 223.941 96.706C223.446 96.9487 222.849 97.07 222.149 97.07C221.094 97.07 220.235 96.804 219.573 96.272C218.91 95.74 218.56 94.956 218.523 93.92H220.427C220.445 94.3773 220.599 94.746 220.889 95.026C221.187 95.2967 221.593 95.432 222.107 95.432C222.583 95.432 222.947 95.3013 223.199 95.04C223.46 94.7693 223.591 94.424 223.591 94.004C223.591 93.444 223.413 93.0427 223.059 92.8C222.704 92.5573 222.153 92.436 221.407 92.436H221.001V90.826H221.407C222.732 90.826 223.395 90.3827 223.395 89.496C223.395 89.0947 223.273 88.782 223.031 88.558C222.797 88.334 222.457 88.222 222.009 88.222C221.57 88.222 221.229 88.3433 220.987 88.586C220.753 88.8193 220.618 89.118 220.581 89.482H218.663ZM233.875 88.488H229.339V90.882C229.535 90.6393 229.815 90.4433 230.179 90.294C230.543 90.1353 230.931 90.056 231.341 90.056C232.088 90.056 232.699 90.2193 233.175 90.546C233.651 90.8727 233.997 91.2927 234.211 91.806C234.426 92.31 234.533 92.8513 234.533 93.43C234.533 94.5033 234.225 95.3667 233.609 96.02C233.003 96.6733 232.135 97 231.005 97C229.941 97 229.092 96.734 228.457 96.202C227.823 95.67 227.463 94.9747 227.379 94.116H229.283C229.367 94.4893 229.554 94.788 229.843 95.012C230.142 95.236 230.52 95.348 230.977 95.348C231.528 95.348 231.943 95.1753 232.223 94.83C232.503 94.4847 232.643 94.0273 232.643 93.458C232.643 92.8793 232.499 92.4407 232.209 92.142C231.929 91.834 231.514 91.68 230.963 91.68C230.571 91.68 230.245 91.778 229.983 91.974C229.722 92.17 229.535 92.4313 229.423 92.758H227.547V86.766H233.875V88.488ZM235.801 89.3C235.801 88.5907 236.007 88.0353 236.417 87.634C236.837 87.2327 237.374 87.032 238.027 87.032C238.681 87.032 239.213 87.2327 239.623 87.634C240.043 88.0353 240.253 88.5907 240.253 89.3C240.253 90.0187 240.043 90.5787 239.623 90.98C239.213 91.3813 238.681 91.582 238.027 91.582C237.374 91.582 236.837 91.3813 236.417 90.98C236.007 90.5787 235.801 90.0187 235.801 89.3ZM244.789 87.2L239.287 97H237.383L242.871 87.2H244.789ZM238.013 88.208C237.5 88.208 237.243 88.572 237.243 89.3C237.243 90.0373 237.5 90.406 238.013 90.406C238.265 90.406 238.461 90.3173 238.601 90.14C238.741 89.9533 238.811 89.6733 238.811 89.3C238.811 88.572 238.545 88.208 238.013 88.208ZM241.947 94.886C241.947 94.1673 242.153 93.612 242.563 93.22C242.983 92.8187 243.52 92.618 244.173 92.618C244.827 92.618 245.354 92.8187 245.755 93.22C246.166 93.612 246.371 94.1673 246.371 94.886C246.371 95.6047 246.166 96.1647 245.755 96.566C245.354 96.9673 244.827 97.168 244.173 97.168C243.511 97.168 242.974 96.9673 242.563 96.566C242.153 96.1647 241.947 95.6047 241.947 94.886ZM244.159 93.794C243.627 93.794 243.361 94.158 243.361 94.886C243.361 95.6233 243.627 95.992 244.159 95.992C244.682 95.992 244.943 95.6233 244.943 94.886C244.943 94.158 244.682 93.794 244.159 93.794Z" fill="black"/>
</g>
<defs>
<filter id="filter0_b_169_4732" x="149" y="41" width="154" height="85" filterUnits="userSpaceOnUse" color-interpolation-filters="sRGB">
<feFlood flood-opacity="0" result="BackgroundImageFix"/>
<feGaussianBlur in="BackgroundImageFix" stdDeviation="7.5"/>
<feComposite in2="SourceAlpha" operator="in" result="effect1_backgroundBlur_169_4732"/>
<feBlend mode="normal" in="SourceGraphic" in2="effect1_backgroundBlur_169_4732" result="shape"/>
</filter>
<linearGradient id="paint0_linear_169_4732" x1="248.461" y1="-34.8559" x2="248.461" y2="201" gradientUnits="userSpaceOnUse">
<stop stop-color="#0000FF" stop-opacity="0.17"/>
<stop offset="1" stop-color="#0000FF" stop-opacity="0"/>
</linearGradient>
</defs>
</svg>
