<svg width="346" height="313" viewBox="0 0 346 313" fill="none" xmlns="http://www.w3.org/2000/svg">
<path d="M61.167 253.171C53.3188 260.848 53.26 273.586 62.0099 280.216C74.1339 289.403 87.5736 296.859 101.93 302.329C122.577 310.195 144.669 313.78 166.807 312.858C188.945 311.936 210.646 306.527 230.534 296.972C250.423 287.418 268.066 273.927 282.345 257.354C296.625 240.781 307.229 221.488 313.487 200.697C319.745 179.906 321.519 158.071 318.698 136.574C315.877 115.077 308.521 94.3875 297.098 75.8166C288.992 62.6402 278.965 50.7341 267.359 40.4615C259.414 33.4285 247.366 35.5693 241.152 44.1704C234.752 53.0288 237.021 65.3185 244.859 72.9337C251.888 79.7624 258.047 87.4311 263.181 95.777C271.778 109.754 277.314 125.325 279.437 141.503C281.56 157.682 280.225 174.116 275.515 189.763C270.806 205.411 262.825 219.931 252.078 232.404C241.331 244.876 228.053 255.03 213.085 262.22C198.116 269.411 181.784 273.482 165.123 274.176C148.462 274.87 131.835 272.172 116.296 266.252C106.776 262.625 97.7917 257.837 89.5484 252.021C80.8546 245.886 68.7736 245.731 61.167 253.171Z" fill="#DDE6EB"/>
<path d="M299.238 168.162C310.395 169.096 320.349 160.806 319.846 149.622C318.767 125.65 312.062 102.146 300.134 80.9719C284.862 53.8623 261.714 31.7912 233.617 17.5495C205.521 3.30787 173.738 -2.46465 142.287 0.96193C117.711 3.63953 94.2008 11.8403 73.5483 24.8117C64.0193 30.7967 62.9662 43.8128 70.3087 52.3397C77.4283 60.6079 89.7855 61.5003 99.2291 56.0351C113.714 47.6528 129.914 42.3235 146.788 40.485C170.247 37.9291 193.954 42.2348 214.911 52.8576C235.868 63.4804 253.134 79.9431 264.525 100.164C272.544 114.398 277.398 130.044 278.867 146.084C279.894 157.292 288.023 167.222 299.238 168.162Z" fill="#0000FF"/>
<g filter="url(#filter0_b_152_7571)">
<rect x="236.823" y="128.816" width="108.592" height="56.4982" rx="28.2491" fill="black" fill-opacity="0.03"/>
</g>
<path d="M284.625 148.846V150.478H277.638V148.846H284.625ZM294.57 148.846V150.478H287.583V148.846H294.57ZM296.762 146.415C296.762 145.588 297 144.942 297.476 144.477C297.963 144.001 298.587 143.763 299.346 143.763C300.105 143.763 300.723 144.001 301.199 144.477C301.686 144.942 301.93 145.588 301.93 146.415C301.93 147.242 301.686 147.894 301.199 148.37C300.723 148.846 300.105 149.084 299.346 149.084C298.587 149.084 297.963 148.846 297.476 148.37C297 147.894 296.762 147.242 296.762 146.415ZM307.132 143.984L300.349 155.816H298.445L305.228 143.984H307.132ZM299.346 144.936C298.632 144.936 298.275 145.429 298.275 146.415C298.275 147.412 298.632 147.911 299.346 147.911C299.686 147.911 299.947 147.792 300.128 147.554C300.321 147.305 300.417 146.925 300.417 146.415C300.417 145.429 300.06 144.936 299.346 144.936ZM303.681 153.368C303.681 152.541 303.919 151.895 304.395 151.43C304.882 150.954 305.506 150.716 306.265 150.716C307.013 150.716 307.625 150.954 308.101 151.43C308.588 151.895 308.832 152.541 308.832 153.368C308.832 154.195 308.588 154.847 308.101 155.323C307.625 155.799 307.013 156.037 306.265 156.037C305.506 156.037 304.882 155.799 304.395 155.323C303.919 154.847 303.681 154.195 303.681 153.368ZM306.248 151.889C305.534 151.889 305.177 152.382 305.177 153.368C305.177 154.354 305.534 154.847 306.248 154.847C306.962 154.847 307.319 154.354 307.319 153.368C307.319 152.382 306.962 151.889 306.248 151.889Z" fill="white"/>
<defs>
<filter id="filter0_b_152_7571" x="201.823" y="93.8159" width="178.592" height="126.498" filterUnits="userSpaceOnUse" color-interpolation-filters="sRGB">
<feFlood flood-opacity="0" result="BackgroundImageFix"/>
<feGaussianBlur in="BackgroundImageFix" stdDeviation="17.5"/>
<feComposite in2="SourceAlpha" operator="in" result="effect1_backgroundBlur_152_7571"/>
<feBlend mode="normal" in="SourceGraphic" in2="effect1_backgroundBlur_152_7571" result="shape"/>
</filter>
</defs>
</svg>
