<svg width="44" height="44" viewBox="0 0 44 44" fill="none" xmlns="http://www.w3.org/2000/svg">
<rect width="44" height="44" rx="22" fill="#F2F4F7"/>
<path d="M22.734 13.8797C22.5613 13.8647 22.3874 13.8857 22.2233 13.9414C22.0592 13.9972 21.9085 14.0864 21.7807 14.2035C21.653 14.3206 21.551 14.463 21.4812 14.6217C21.4114 14.7803 21.3754 14.9517 21.3754 15.125V18.3024C21.3732 18.5972 21.4763 18.8831 21.666 19.1088C21.8557 19.3345 22.1197 19.4851 22.4105 19.5336C22.8752 19.6116 23.3084 19.8193 23.6601 20.1327C24.0119 20.4462 24.2679 20.8526 24.3987 21.3053C24.5294 21.7579 24.5296 22.2383 24.3992 22.6911C24.2688 23.1438 24.0132 23.5505 23.6617 23.8642C23.3102 24.178 22.8772 24.386 22.4126 24.4644C21.948 24.5427 21.4707 24.4882 21.0358 24.307C20.6008 24.1259 20.2259 23.8256 19.9543 23.4406C19.6826 23.0557 19.5253 22.6018 19.5004 22.1313C19.4683 21.4891 19.5996 20.9594 19.891 20.5485C20.0623 20.3096 20.143 20.0176 20.1188 19.7246C20.0946 19.4317 19.9671 19.1568 19.759 18.9493L17.6012 16.7407C17.4782 16.6177 17.3308 16.5217 17.1686 16.4589C17.0064 16.3961 16.8329 16.3678 16.6591 16.3759C16.4854 16.384 16.3152 16.4282 16.1595 16.5058C16.0039 16.5835 15.8661 16.6927 15.7551 16.8266C14.4527 18.3875 13.7854 20.3814 13.8859 22.4118C13.9863 24.4422 14.8472 26.3605 16.2972 27.7852C17.8135 29.2895 19.8645 30.131 22.0004 30.125H22.1168C24.2297 30.0891 26.246 29.2337 27.7402 27.7393C29.2344 26.245 30.0896 24.2286 30.1254 22.1157C30.184 17.8735 26.9371 14.2563 22.734 13.8797ZM16.7129 17.6204L18.8699 19.8227V19.8274C18.5497 20.2869 18.3487 20.8187 18.2847 21.375H15.1535C15.2787 19.9938 15.8227 18.6838 16.7129 17.6204ZM15.1543 22.625H18.3027C18.4323 23.393 18.7978 24.1015 19.3484 24.6522C19.899 25.203 20.6075 25.5687 21.3754 25.6985V28.8469C19.7746 28.7007 18.2757 27.9982 17.1392 26.8615C16.0026 25.7248 15.3003 24.2258 15.1543 22.625ZM26.8551 26.8547C25.723 27.9947 24.2254 28.6992 22.6254 28.8446V25.6985C23.3497 25.5779 24.022 25.2454 24.5574 24.743C25.0693 24.2661 25.4375 23.6555 25.6206 22.9803C25.8036 22.305 25.794 21.592 25.5931 20.9219C25.3921 20.2518 25.0076 19.6513 24.4832 19.1882C23.9587 18.7252 23.3152 18.4181 22.6254 18.3016V15.125C26.1816 15.4438 28.9277 18.5063 28.8754 22.0977C28.8508 23.8867 28.1254 25.5948 26.8551 26.8547Z" fill="#0000FF"/>
</svg>
