<svg width="44" height="44" viewBox="0 0 44 44" fill="none" xmlns="http://www.w3.org/2000/svg">
<rect width="44" height="44" rx="22" fill="#F2F4F7"/>
<path d="M23.8746 13.6665H19.0783C18.9287 13.6665 18.8539 13.6665 18.7879 13.6893C18.7295 13.7094 18.6764 13.7423 18.6322 13.7855C18.5823 13.8344 18.5489 13.9013 18.482 14.035L14.982 21.035C14.8223 21.3545 14.7424 21.5142 14.7616 21.6441C14.7783 21.7575 14.8411 21.8589 14.935 21.9246C15.0425 21.9998 15.2211 21.9998 15.5783 21.9998H20.7496L18.2496 30.3332L28.4105 19.7959C28.7533 19.4404 28.9247 19.2627 28.9348 19.1106C28.9435 18.9786 28.8889 18.8502 28.7879 18.7649C28.6714 18.6665 28.4245 18.6665 27.9306 18.6665H21.9996L23.8746 13.6665Z" stroke="#0000FF" stroke-width="1.5" stroke-linecap="round" stroke-linejoin="round"/>
</svg>
