<svg width="44" height="44" viewBox="0 0 44 44" fill="none" xmlns="http://www.w3.org/2000/svg">
<rect width="44" height="44" rx="22" fill="#F2F4F7"/>
<path d="M29.5 27.625H28.875V15.125C28.875 14.9592 28.8092 14.8003 28.6919 14.6831C28.5747 14.5658 28.4158 14.5 28.25 14.5H23.875C23.7092 14.5 23.5503 14.5658 23.4331 14.6831C23.3158 14.8003 23.25 14.9592 23.25 15.125V18.25H19.5C19.3342 18.25 19.1753 18.3158 19.0581 18.4331C18.9408 18.5503 18.875 18.7092 18.875 18.875V22H15.75C15.5842 22 15.4253 22.0658 15.3081 22.1831C15.1908 22.3003 15.125 22.4592 15.125 22.625V27.625H14.5C14.3342 27.625 14.1753 27.6908 14.0581 27.8081C13.9408 27.9253 13.875 28.0842 13.875 28.25C13.875 28.4158 13.9408 28.5747 14.0581 28.6919C14.1753 28.8092 14.3342 28.875 14.5 28.875H29.5C29.6658 28.875 29.8247 28.8092 29.9419 28.6919C30.0592 28.5747 30.125 28.4158 30.125 28.25C30.125 28.0842 30.0592 27.9253 29.9419 27.8081C29.8247 27.6908 29.6658 27.625 29.5 27.625ZM24.5 15.75H27.625V27.625H24.5V15.75ZM20.125 19.5H23.25V27.625H20.125V19.5ZM16.375 23.25H18.875V27.625H16.375V23.25Z" fill="#0000FF"/>
</svg>
