<svg width="44" height="44" viewBox="0 0 44 44" fill="none" xmlns="http://www.w3.org/2000/svg">
<rect width="44" height="44" rx="22" fill="#F2F4F7"/>
<path d="M30.3337 29.5V27.8333C30.3337 26.2801 29.2713 24.9751 27.8337 24.605M24.917 14.7423C26.1386 15.2368 27.0003 16.4344 27.0003 17.8333C27.0003 19.2322 26.1386 20.4299 24.917 20.9244M26.167 29.5C26.167 27.9469 26.167 27.1703 25.9133 26.5577C25.5749 25.741 24.926 25.092 24.1093 24.7537C23.4967 24.5 22.7201 24.5 21.167 24.5H18.667C17.1139 24.5 16.3373 24.5 15.7247 24.7537C14.908 25.092 14.259 25.741 13.9207 26.5577C13.667 27.1703 13.667 27.9469 13.667 29.5M23.2503 17.8333C23.2503 19.6743 21.7579 21.1667 19.917 21.1667C18.076 21.1667 16.5837 19.6743 16.5837 17.8333C16.5837 15.9924 18.076 14.5 19.917 14.5C21.7579 14.5 23.2503 15.9924 23.2503 17.8333Z" stroke="#0000FF" stroke-width="1.5" stroke-linecap="round" stroke-linejoin="round"/>
</svg>
