<svg width="44" height="44" viewBox="0 0 44 44" fill="none" xmlns="http://www.w3.org/2000/svg">
<rect x="0.5" y="0.5" width="43" height="43" rx="21.5" stroke="#979EAD"/>
<path d="M18.25 22V17C18.25 16.0054 18.6451 15.0516 19.3483 14.3483C20.0516 13.6451 21.0054 13.25 22 13.25C22.9946 13.25 23.9484 13.6451 24.6517 14.3483C25.3549 15.0516 25.75 16.0054 25.75 17V22C25.75 22.9946 25.3549 23.9484 24.6517 24.6517C23.9484 25.3549 22.9946 25.75 22 25.75C21.0054 25.75 20.0516 25.3549 19.3483 24.6517C18.6451 23.9484 18.25 22.9946 18.25 22ZM28.25 22C28.25 21.8342 28.1842 21.6753 28.0669 21.5581C27.9497 21.4408 27.7908 21.375 27.625 21.375C27.4592 21.375 27.3003 21.4408 27.1831 21.5581C27.0658 21.6753 27 21.8342 27 22C27 23.3261 26.4732 24.5979 25.5355 25.5355C24.5979 26.4732 23.3261 27 22 27C20.6739 27 19.4021 26.4732 18.4645 25.5355C17.5268 24.5979 17 23.3261 17 22C17 21.8342 16.9342 21.6753 16.8169 21.5581C16.6997 21.4408 16.5408 21.375 16.375 21.375C16.2092 21.375 16.0503 21.4408 15.9331 21.5581C15.8158 21.6753 15.75 21.8342 15.75 22C15.7519 23.5489 16.3281 25.042 17.3671 26.1907C18.4061 27.3393 19.8341 28.062 21.375 28.2188V30.125C21.375 30.2908 21.4408 30.4497 21.5581 30.5669C21.6753 30.6842 21.8342 30.75 22 30.75C22.1658 30.75 22.3247 30.6842 22.4419 30.5669C22.5592 30.4497 22.625 30.2908 22.625 30.125V28.2188C24.1659 28.062 25.5939 27.3393 26.6329 26.1907C27.6719 25.042 28.2481 23.5489 28.25 22Z" fill="#505256"/>
</svg>
