<svg width="45" height="44" viewBox="0 0 45 44" fill="none" xmlns="http://www.w3.org/2000/svg">
<rect x="0.833496" y="0.5" width="43" height="43" rx="21.5" stroke="#979EAD"/>
<path d="M29.2085 15.75V28.25C29.2085 28.5815 29.0768 28.8995 28.8424 29.1339C28.608 29.3683 28.29 29.5 27.9585 29.5H24.8335C24.502 29.5 24.184 29.3683 23.9496 29.1339C23.7152 28.8995 23.5835 28.5815 23.5835 28.25V15.75C23.5835 15.4185 23.7152 15.1005 23.9496 14.8661C24.184 14.6317 24.502 14.5 24.8335 14.5H27.9585C28.29 14.5 28.608 14.6317 28.8424 14.8661C29.0768 15.1005 29.2085 15.4185 29.2085 15.75ZM19.8335 14.5H16.7085C16.377 14.5 16.059 14.6317 15.8246 14.8661C15.5902 15.1005 15.4585 15.4185 15.4585 15.75V28.25C15.4585 28.5815 15.5902 28.8995 15.8246 29.1339C16.059 29.3683 16.377 29.5 16.7085 29.5H19.8335C20.165 29.5 20.483 29.3683 20.7174 29.1339C20.9518 28.8995 21.0835 28.5815 21.0835 28.25V15.75C21.0835 15.4185 20.9518 15.1005 20.7174 14.8661C20.483 14.6317 20.165 14.5 19.8335 14.5Z" fill="#505256"/>
</svg>
