<svg width="50" height="50" viewBox="0 0 50 50" fill="none" xmlns="http://www.w3.org/2000/svg">
<g filter="url(#filter0_b_153_16685)">
<circle cx="25" cy="25" r="25" fill="#F5F5F5" fill-opacity="0.89"/>
</g>
<path d="M30.625 25C30.625 25.1658 30.5592 25.3247 30.4419 25.4419C30.3247 25.5592 30.1658 25.625 30 25.625H20C19.8342 25.625 19.6753 25.5592 19.5581 25.4419C19.4408 25.3247 19.375 25.1658 19.375 25C19.375 24.8342 19.4408 24.6753 19.5581 24.5581C19.6753 24.4408 19.8342 24.375 20 24.375H30C30.1658 24.375 30.3247 24.4408 30.4419 24.5581C30.5592 24.6753 30.625 24.8342 30.625 25ZM33.125 20.625H16.875C16.7092 20.625 16.5503 20.6908 16.4331 20.8081C16.3158 20.9253 16.25 21.0842 16.25 21.25C16.25 21.4158 16.3158 21.5747 16.4331 21.6919C16.5503 21.8092 16.7092 21.875 16.875 21.875H33.125C33.2908 21.875 33.4497 21.8092 33.5669 21.6919C33.6842 21.5747 33.75 21.4158 33.75 21.25C33.75 21.0842 33.6842 20.9253 33.5669 20.8081C33.4497 20.6908 33.2908 20.625 33.125 20.625ZM26.875 28.125H23.125C22.9592 28.125 22.8003 28.1908 22.6831 28.3081C22.5658 28.4253 22.5 28.5842 22.5 28.75C22.5 28.9158 22.5658 29.0747 22.6831 29.1919C22.8003 29.3092 22.9592 29.375 23.125 29.375H26.875C27.0408 29.375 27.1997 29.3092 27.3169 29.1919C27.4342 29.0747 27.5 28.9158 27.5 28.75C27.5 28.5842 27.4342 28.4253 27.3169 28.3081C27.1997 28.1908 27.0408 28.125 26.875 28.125Z" fill="black"/>
<defs>
<filter id="filter0_b_153_16685" x="-40" y="-40" width="130" height="130" filterUnits="userSpaceOnUse" color-interpolation-filters="sRGB">
<feFlood flood-opacity="0" result="BackgroundImageFix"/>
<feGaussianBlur in="BackgroundImageFix" stdDeviation="20"/>
<feComposite in2="SourceAlpha" operator="in" result="effect1_backgroundBlur_153_16685"/>
<feBlend mode="normal" in="SourceGraphic" in2="effect1_backgroundBlur_153_16685" result="shape"/>
</filter>
</defs>
</svg>
