<svg width="100" height="53" viewBox="0 0 100 53" fill="none" xmlns="http://www.w3.org/2000/svg">
<path d="M26 24C26 10.7452 36.7452 0 50 0C63.2548 0 74 10.7452 74 24V53H26V24Z" fill="white"/>
<path fill-rule="evenodd" clip-rule="evenodd" d="M74 27H74.0822C74.0277 27.6595 74 28.3265 74 29V27ZM98 53C84.7461 53 74 42.2549 74 29V53H98ZM98 53H100V52.9178C99.3405 52.9723 98.6735 53 98 53Z" fill="white"/>
<path fill-rule="evenodd" clip-rule="evenodd" d="M26 27H25.9178C25.9723 27.6595 26 28.3265 26 29V27ZM2 53C15.2539 53 26 42.2549 26 29V53H2ZM2 53H0V52.9178C0.65947 52.9723 1.3265 53 2 53Z" fill="white"/>
<g clip-path="url(#clip0_328_4675)">
<path d="M45.0003 27.5003L46.667 29.167L50.417 25.417M46.667 21.667V19.3337C46.667 18.4002 46.667 17.9335 46.8486 17.577C47.0084 17.2634 47.2634 17.0084 47.577 16.8486C47.9335 16.667 48.4002 16.667 49.3337 16.667H55.667C56.6004 16.667 57.0671 16.667 57.4236 16.8486C57.7372 17.0084 57.9922 17.2634 58.152 17.577C58.3337 17.9335 58.3337 18.4002 58.3337 19.3337V25.667C58.3337 26.6004 58.3337 27.0671 58.152 27.4236C57.9922 27.7372 57.7372 27.9922 57.4236 28.152C57.0671 28.3337 56.6004 28.3337 55.667 28.3337H53.3337M44.3337 33.3337H50.667C51.6004 33.3337 52.0671 33.3337 52.4236 33.152C52.7372 32.9922 52.9922 32.7372 53.152 32.4236C53.3337 32.0671 53.3337 31.6004 53.3337 30.667V24.3337C53.3337 23.4002 53.3337 22.9335 53.152 22.577C52.9922 22.2634 52.7372 22.0084 52.4236 21.8486C52.0671 21.667 51.6004 21.667 50.667 21.667H44.3337C43.4002 21.667 42.9335 21.667 42.577 21.8486C42.2634 22.0084 42.0084 22.2634 41.8486 22.577C41.667 22.9335 41.667 23.4002 41.667 24.3337V30.667C41.667 31.6004 41.667 32.0671 41.8486 32.4236C42.0084 32.7372 42.2634 32.9922 42.577 33.152C42.9335 33.3337 43.4002 33.3337 44.3337 33.3337Z" stroke="black" stroke-width="1.5" stroke-linecap="round" stroke-linejoin="round"/>
</g>
<defs>
<clipPath id="clip0_328_4675">
<rect width="20" height="20" fill="white" transform="translate(40 15)"/>
</clipPath>
</defs>
</svg>
