<svg width="100" height="53" viewBox="0 0 100 53" fill="none" xmlns="http://www.w3.org/2000/svg">
<path d="M26 24C26 10.7452 36.7452 0 50 0C63.2548 0 74 10.7452 74 24V53H26V24Z" fill="white"/>
<path fill-rule="evenodd" clip-rule="evenodd" d="M74 27H74.0822C74.0277 27.6595 74 28.3265 74 29V27ZM98 53C84.7461 53 74 42.2549 74 29V53H98ZM98 53H100V52.9178C99.3405 52.9723 98.6735 53 98 53Z" fill="white"/>
<path fill-rule="evenodd" clip-rule="evenodd" d="M26 27H25.9178C25.9723 27.6595 26 28.3265 26 29V27ZM2 53C15.2539 53 26 42.2549 26 29V53H2ZM2 53H0V52.9178C0.65947 52.9723 1.3265 53 2 53Z" fill="white"/>
<path d="M45.0003 24.1663V27.4997M55.0003 22.4997V25.833M54.167 18.333C56.2076 18.333 57.3113 18.6453 57.8604 18.8875C57.9336 18.9198 57.9701 18.9359 58.0757 19.0367C58.1389 19.097 58.2544 19.2742 58.2841 19.3564C58.3337 19.4936 58.3337 19.5686 58.3337 19.7186V28.6756C58.3337 29.4329 58.3337 29.8116 58.2201 30.0062C58.1046 30.2042 57.9932 30.2962 57.7769 30.3723C57.5644 30.4471 57.1353 30.3647 56.2771 30.1998C55.6765 30.0844 54.9641 29.9997 54.167 29.9997C51.667 29.9997 49.167 31.6663 45.8337 31.6663C43.7931 31.6663 42.6894 31.354 42.1402 31.1118C42.0671 31.0795 42.0305 31.0634 41.925 30.9627C41.8617 30.9023 41.7463 30.7252 41.7166 30.6429C41.667 30.5057 41.667 30.4307 41.667 30.2807L41.667 21.3237C41.667 20.5664 41.667 20.1878 41.7806 19.9931C41.8961 19.7951 42.0075 19.7031 42.2237 19.627C42.4363 19.5522 42.8654 19.6347 43.7235 19.7995C44.3242 19.915 45.0366 19.9997 45.8337 19.9997C48.3337 19.9997 50.8337 18.333 54.167 18.333ZM52.0837 24.9997C52.0837 26.1503 51.1509 27.083 50.0003 27.083C48.8497 27.083 47.917 26.1503 47.917 24.9997C47.917 23.8491 48.8497 22.9163 50.0003 22.9163C51.1509 22.9163 52.0837 23.8491 52.0837 24.9997Z" stroke="black" stroke-width="1.5" stroke-linecap="round" stroke-linejoin="round"/>
</svg>
