<svg width="100" height="53" viewBox="0 0 100 53" fill="none" xmlns="http://www.w3.org/2000/svg">
<path d="M26 24C26 10.7452 36.7452 0 50 0C63.2548 0 74 10.7452 74 24V53H26V24Z" fill="white"/>
<path fill-rule="evenodd" clip-rule="evenodd" d="M74 27H74.0822C74.0277 27.6595 74 28.3265 74 29V27ZM98 53C84.7461 53 74 42.2549 74 29V53H98ZM98 53H100V52.9178C99.3405 52.9723 98.6735 53 98 53Z" fill="white"/>
<path fill-rule="evenodd" clip-rule="evenodd" d="M26 27H25.9178C25.9723 27.6595 26 28.3265 26 29V27ZM2 53C15.2539 53 26 42.2549 26 29V53H2ZM2 53H0V52.9178C0.65947 52.9723 1.3265 53 2 53Z" fill="white"/>
<path d="M42.5 21.5C42.5 20.0999 42.5 19.3998 42.7725 18.865C43.0122 18.3946 43.3946 18.0122 43.865 17.7725C44.3998 17.5 45.0999 17.5 46.5 17.5H53.5C54.9001 17.5 55.6002 17.5 56.135 17.7725C56.6054 18.0122 56.9878 18.3946 57.2275 18.865C57.5 19.3998 57.5 20.0999 57.5 21.5V26C57.5 27.4001 57.5 28.1002 57.2275 28.635C56.9878 29.1054 56.6054 29.4878 56.135 29.7275C55.6002 30 54.9001 30 53.5 30H48.0698C47.5497 30 47.2897 30 47.041 30.051C46.8204 30.0963 46.6068 30.1712 46.4062 30.2737C46.1801 30.3892 45.9771 30.5517 45.571 30.8765L43.5831 32.4668C43.2364 32.7442 43.063 32.8829 42.9171 32.8831C42.7902 32.8832 42.6702 32.8255 42.591 32.7263C42.5 32.6123 42.5 32.3903 42.5 31.9463V21.5Z" stroke="black" stroke-width="1.5" stroke-linecap="round" stroke-linejoin="round"/>
</svg>
