<svg width="74" height="53" viewBox="0 0 74 53" fill="none" xmlns="http://www.w3.org/2000/svg">
<path d="M0 24C0 10.7452 10.7452 0 24 0C37.2548 0 48 10.7452 48 24V53H0V24Z" fill="white"/>
<path fill-rule="evenodd" clip-rule="evenodd" d="M48 27H48.0822C48.0277 27.6595 48 28.3265 48 29V27ZM72 53C58.7461 53 48 42.2549 48 29V53H72ZM72 53H74V52.9178C73.3405 52.9723 72.6735 53 72 53Z" fill="white"/>
<path d="M23.9999 18.3333V31.6666M28.9999 19.9999L18.9999 29.9999M30.6666 24.9999H17.3333M28.9999 29.9999L18.9999 19.9999" stroke="#101828" stroke-width="1.5" stroke-linecap="round" stroke-linejoin="round"/>
</svg>
