<svg width="48" height="48" viewBox="0 0 48 48" fill="none" xmlns="http://www.w3.org/2000/svg">
<rect width="48" height="48" rx="24" fill="#EAECF0"/>
<path d="M16.5 20.5C16.5 19.0999 16.5 18.3998 16.7725 17.865C17.0122 17.3946 17.3946 17.0122 17.865 16.7725C18.3998 16.5 19.0999 16.5 20.5 16.5H27.5C28.9001 16.5 29.6002 16.5 30.135 16.7725C30.6054 17.0122 30.9878 17.3946 31.2275 17.865C31.5 18.3998 31.5 19.0999 31.5 20.5V25C31.5 26.4001 31.5 27.1002 31.2275 27.635C30.9878 28.1054 30.6054 28.4878 30.135 28.7275C29.6002 29 28.9001 29 27.5 29H22.0698C21.5497 29 21.2897 29 21.041 29.051C20.8204 29.0963 20.6068 29.1712 20.4062 29.2737C20.1801 29.3892 19.9771 29.5517 19.571 29.8765L17.5831 31.4668C17.2364 31.7442 17.063 31.8829 16.9171 31.8831C16.7902 31.8832 16.6702 31.8255 16.591 31.7263C16.5 31.6123 16.5 31.3903 16.5 30.9463V20.5Z" stroke="#667085" stroke-width="1.5" stroke-linecap="round" stroke-linejoin="round"/>
</svg>
