<svg width="48" height="48" viewBox="0 0 48 48" fill="none" xmlns="http://www.w3.org/2000/svg">
<rect width="48" height="48" rx="24" fill="#EAECF0"/>
<g clip-path="url(#clip0_153_4131)">
<path d="M18.9998 26.5003L20.6665 28.167L24.4165 24.417M20.6665 20.667V18.3337C20.6665 17.4002 20.6665 16.9335 20.8482 16.577C21.0079 16.2634 21.2629 16.0084 21.5765 15.8486C21.933 15.667 22.3997 15.667 23.3332 15.667H29.6665C30.5999 15.667 31.0666 15.667 31.4232 15.8486C31.7368 16.0084 31.9917 16.2634 32.1515 16.577C32.3332 16.9335 32.3332 17.4002 32.3332 18.3337V24.667C32.3332 25.6004 32.3332 26.0671 32.1515 26.4236C31.9917 26.7372 31.7368 26.9922 31.4232 27.152C31.0666 27.3337 30.5999 27.3337 29.6665 27.3337H27.3332M18.3332 32.3337H24.6665C25.5999 32.3337 26.0666 32.3337 26.4232 32.152C26.7368 31.9922 26.9917 31.7372 27.1515 31.4236C27.3332 31.0671 27.3332 30.6004 27.3332 29.667V23.3337C27.3332 22.4002 27.3332 21.9335 27.1515 21.577C26.9917 21.2634 26.7368 21.0084 26.4232 20.8486C26.0666 20.667 25.5999 20.667 24.6665 20.667H18.3332C17.3997 20.667 16.933 20.667 16.5765 20.8486C16.2629 21.0084 16.0079 21.2634 15.8482 21.577C15.6665 21.9335 15.6665 22.4002 15.6665 23.3337V29.667C15.6665 30.6004 15.6665 31.0671 15.8482 31.4236C16.0079 31.7372 16.2629 31.9922 16.5765 32.152C16.933 32.3337 17.3997 32.3337 18.3332 32.3337Z" stroke="#667085" stroke-width="1.5" stroke-linecap="round" stroke-linejoin="round"/>
</g>
<defs>
<clipPath id="clip0_153_4131">
<rect width="20" height="20" fill="white" transform="translate(14 14)"/>
</clipPath>
</defs>
</svg>
