<svg width="48" height="48" viewBox="0 0 48 48" fill="none" xmlns="http://www.w3.org/2000/svg">
<rect width="48" height="48" rx="24" fill="#EAECF0"/>
<path d="M18.9998 23.1663V26.4997M28.9998 21.4997V24.833M28.1665 17.333C30.2071 17.333 31.3108 17.6453 31.8599 17.8875C31.9331 17.9198 31.9696 17.9359 32.0752 18.0367C32.1384 18.097 32.2539 18.2742 32.2836 18.3564C32.3332 18.4936 32.3332 18.5686 32.3332 18.7186V27.6756C32.3332 28.4329 32.3332 28.8116 32.2196 29.0062C32.1041 29.2042 31.9927 29.2962 31.7765 29.3723C31.5639 29.4471 31.1348 29.3647 30.2766 29.1998C29.676 29.0844 28.9636 28.9997 28.1665 28.9997C25.6665 28.9997 23.1665 30.6663 19.8332 30.6663C17.7926 30.6663 16.6889 30.354 16.1397 30.1118C16.0666 30.0795 16.03 30.0634 15.9245 29.9627C15.8612 29.9023 15.7458 29.7252 15.7161 29.6429C15.6665 29.5057 15.6665 29.4307 15.6665 29.2807L15.6665 20.3237C15.6665 19.5664 15.6665 19.1878 15.7801 18.9931C15.8956 18.7951 16.007 18.7031 16.2232 18.627C16.4358 18.5522 16.8649 18.6347 17.723 18.7995C18.3237 18.915 19.0361 18.9997 19.8332 18.9997C22.3332 18.9997 24.8332 17.333 28.1665 17.333ZM26.0832 23.9997C26.0832 25.1503 25.1504 26.083 23.9998 26.083C22.8492 26.083 21.9165 25.1503 21.9165 23.9997C21.9165 22.8491 22.8492 21.9163 23.9998 21.9163C25.1504 21.9163 26.0832 22.8491 26.0832 23.9997Z" stroke="#667085" stroke-width="1.5" stroke-linecap="round" stroke-linejoin="round"/>
</svg>
