<svg width="48" height="48" viewBox="0 0 48 48" fill="none" xmlns="http://www.w3.org/2000/svg">
<rect width="48" height="48" rx="24" fill="#EAECF0"/>
<path d="M29.0002 22.3333L25.6669 18.9999M16.0835 31.9166L18.9038 31.6032C19.2484 31.5649 19.4207 31.5458 19.5817 31.4937C19.7246 31.4474 19.8605 31.3821 19.9859 31.2994C20.1272 31.2062 20.2498 31.0836 20.4949 30.8385L31.5002 19.8333C32.4207 18.9128 32.4207 17.4204 31.5002 16.4999C30.5797 15.5795 29.0873 15.5795 28.1669 16.4999L17.1616 27.5052C16.9165 27.7503 16.7939 27.8729 16.7007 28.0142C16.618 28.1396 16.5527 28.2755 16.5064 28.4184C16.4543 28.5794 16.4351 28.7517 16.3969 29.0963L16.0835 31.9166Z" stroke="#667085" stroke-width="1.5" stroke-linecap="round" stroke-linejoin="round"/>
</svg>
